<svg width="24" height="24" viewBox="0 0 24 24" fill="none" xmlns="http://www.w3.org/2000/svg">
<mask id="mask0_1_842" style="mask-type:alpha" maskUnits="userSpaceOnUse" x="0" y="0" width="24" height="24">
<rect width="24" height="24" fill="#D9D9D9"/>
</mask>
<g mask="url(#mask0_1_842)">
<path d="M12 18.75C11.8168 18.75 11.6668 18.6916 11.55 18.5748C11.4332 18.4584 11.3748 18.3084 11.3748 18.1248V12.6252H5.8752C5.6916 12.6252 5.5416 12.5668 5.4252 12.45C5.3084 12.3332 5.25 12.1832 5.25 12C5.25 11.8168 5.3084 11.6668 5.4252 11.55C5.5416 11.4332 5.6916 11.3748 5.8752 11.3748H11.3748V5.8752C11.3748 5.6916 11.4332 5.5416 11.55 5.4252C11.6668 5.3084 11.8168 5.25 12 5.25C12.1832 5.25 12.3332 5.3084 12.45 5.4252C12.5668 5.5416 12.6252 5.6916 12.6252 5.8752V11.3748H18.1248C18.3084 11.3748 18.4584 11.4332 18.5748 11.55C18.6916 11.6668 18.75 11.8168 18.75 12C18.75 12.1832 18.6916 12.3332 18.5748 12.45C18.4584 12.5668 18.3084 12.6252 18.1248 12.6252H12.6252V18.1248C12.6252 18.3084 12.5668 18.4584 12.45 18.5748C12.3332 18.6916 12.1832 18.75 12 18.75Z" fill="#808799"/>
</g>
</svg>
