<svg width="24" height="24" viewBox="0 0 24 24" fill="none" xmlns="http://www.w3.org/2000/svg">
<mask id="mask0_1_898" style="mask-type:alpha" maskUnits="userSpaceOnUse" x="0" y="0" width="24" height="24">
<rect width="24" height="24" fill="#D9D9D9"/>
</mask>
<g mask="url(#mask0_1_898)">
<path d="M11.9998 21.4998C10.683 21.4998 9.4454 21.2498 8.287 20.7498C7.129 20.2498 6.125 19.5748 5.275 18.7248C4.425 17.8748 3.75 16.8708 3.25 15.7128C2.75 14.5544 2.5 13.3168 2.5 12C2.5 10.6832 2.75 9.44584 3.25 8.28784C3.75 7.12944 4.425 6.12524 5.275 5.27524C6.125 4.42524 7.129 3.75024 8.287 3.25024C9.4454 2.75024 10.683 2.50024 11.9998 2.50024C13.3166 2.50024 14.5542 2.75024 15.7126 3.25024C16.8706 3.75024 17.8746 4.42524 18.7246 5.27524C19.5746 6.12524 20.2496 7.12944 20.7496 8.28784C21.2496 9.44584 21.4996 10.6832 21.4996 12V13.1502C21.4996 14.0502 21.1914 14.8044 20.575 15.4128C19.9582 16.0208 19.1998 16.3248 18.2998 16.3248C17.6666 16.3248 17.1042 16.1708 16.6126 15.8628C16.1206 15.5544 15.7414 15.1334 15.475 14.5998C15.075 15.1498 14.5874 15.5748 14.0122 15.8748C13.4374 16.1748 12.7666 16.3248 11.9998 16.3248C10.7998 16.3248 9.7748 15.904 8.9248 15.0624C8.0748 14.2208 7.6498 13.2 7.6498 12C7.6498 10.7832 8.0748 9.75404 8.9248 8.91244C9.7748 8.07084 10.7998 7.65004 11.9998 7.65004C13.1998 7.65004 14.2248 8.07084 15.0748 8.91244C15.9248 9.75404 16.3498 10.7832 16.3498 12V13.1502C16.3498 13.7002 16.5374 14.1584 16.9126 14.5248C17.2874 14.8916 17.7498 15.075 18.2998 15.075C18.833 15.075 19.2914 14.8916 19.675 14.5248C20.0582 14.1584 20.2498 13.7002 20.2498 13.1502V12C20.2498 9.73324 19.4414 7.79164 17.8246 6.17524C16.2082 4.55844 14.2666 3.75004 11.9998 3.75004C9.733 3.75004 7.7914 4.55844 6.175 6.17524C4.5582 7.79164 3.7498 9.73324 3.7498 12C3.7498 14.2668 4.5582 16.2084 6.175 17.8248C7.7914 19.4416 9.733 20.25 11.9998 20.25H16.5496C16.7332 20.25 16.8832 20.3084 16.9996 20.4252C17.1164 20.5416 17.1748 20.6916 17.1748 20.8752C17.1748 21.0584 17.1164 21.2084 16.9996 21.3252C16.8832 21.4416 16.7332 21.4998 16.5496 21.4998H11.9998ZM11.9998 15.075C12.8498 15.075 13.5748 14.7792 14.1748 14.1876C14.7748 13.596 15.0748 12.8668 15.0748 12C15.0748 11.1332 14.7748 10.3998 14.1748 9.79984C13.5748 9.19984 12.8498 8.89984 11.9998 8.89984C11.1498 8.89984 10.4248 9.19984 9.8248 9.79984C9.2248 10.3998 8.9248 11.1332 8.9248 12C8.9248 12.85 9.2248 13.575 9.8248 14.175C10.4248 14.775 11.1498 15.075 11.9998 15.075Z" fill="#808799"/>
</g>
</svg>
