<svg width="24" height="24" viewBox="0 0 24 24" fill="none" xmlns="http://www.w3.org/2000/svg">
<mask id="mask0_1_880" style="mask-type:alpha" maskUnits="userSpaceOnUse" x="0" y="0" width="24" height="24">
<rect width="24" height="24" fill="#D9D9D9"/>
</mask>
<g mask="url(#mask0_1_880)">
<path d="M11.4498 14.1L8.95022 11.5998C8.70022 11.3498 8.64182 11.0624 8.77502 10.7376C8.90822 10.4124 9.14982 10.2498 9.49982 10.2498H14.5248C14.8748 10.2498 15.1166 10.4124 15.2502 10.7376C15.3834 11.0624 15.325 11.3498 15.075 11.5998L12.5502 14.1C12.4666 14.1832 12.3832 14.2456 12.3 14.2872C12.2168 14.3292 12.1168 14.3502 12 14.3502C11.9 14.3502 11.8042 14.3292 11.7126 14.2872C11.621 14.2456 11.5334 14.1832 11.4498 14.1Z" fill="#808799"/>
</g>
</svg>
