<svg width="24" height="24" viewBox="0 0 24 24" fill="none" xmlns="http://www.w3.org/2000/svg">
<mask id="mask0_1_883" style="mask-type:alpha" maskUnits="userSpaceOnUse" x="0" y="0" width="24" height="24">
<rect width="24" height="24" fill="#D9D9D9"/>
</mask>
<g mask="url(#mask0_1_883)">
<path d="M9.49982 13.7502C9.14982 13.7502 8.90822 13.5918 8.77502 13.275C8.64182 12.9582 8.70022 12.6748 8.95022 12.4248L11.475 9.87478C11.5582 9.79158 11.6456 9.73338 11.7372 9.70018C11.8292 9.66658 11.9252 9.64978 12.0252 9.64978C12.1252 9.64978 12.221 9.66658 12.3126 9.70018C12.4042 9.73338 12.4916 9.79158 12.5748 9.87478L15.1002 12.4248C15.3502 12.6748 15.4084 12.9582 15.2748 13.275C15.1416 13.5918 14.9 13.7502 14.55 13.7502H9.49982Z" fill="#808799"/>
</g>
</svg>
