<svg width="24" height="24" viewBox="0 0 24 24" fill="none" xmlns="http://www.w3.org/2000/svg">
<mask id="mask0_1_824" style="mask-type:alpha" maskUnits="userSpaceOnUse" x="0" y="0" width="24" height="24">
<rect width="24" height="24" fill="#D9D9D9"/>
</mask>
<g mask="url(#mask0_1_824)">
<path d="M15.7 21.0252L7.225 12.5502C7.1418 12.4666 7.0834 12.379 7.0498 12.2874C7.0166 12.1958 7 12.1 7 12C7 11.9 7.0166 11.8042 7.0498 11.7126C7.0834 11.621 7.1418 11.5334 7.225 11.4498L15.7252 2.95021C15.8916 2.78341 16.0916 2.70001 16.3252 2.70001C16.5584 2.70001 16.7666 2.79161 16.9498 2.97481C17.1166 3.14161 17.2 3.34581 17.2 3.58741C17.2 3.82901 17.1166 4.04161 16.9498 4.22521L9.1498 12L16.9498 19.8C17.1334 19.9668 17.221 20.171 17.2126 20.4126C17.2042 20.6542 17.1166 20.8584 16.9498 21.0252C16.7666 21.1916 16.5542 21.2748 16.3126 21.2748C16.071 21.2748 15.8668 21.1916 15.7 21.0252Z" fill="#808799"/>
</g>
</svg>
