<svg width="24" height="24" viewBox="0 0 24 24" fill="none" xmlns="http://www.w3.org/2000/svg">
<mask id="mask0_1_943" style="mask-type:alpha" maskUnits="userSpaceOnUse" x="0" y="0" width="24" height="24">
<rect width="24" height="24" fill="#D9D9D9"/>
</mask>
<g mask="url(#mask0_1_943)">
<path d="M6.22353 20.4001C5.66645 20.4001 5.18995 20.1988 4.79405 19.7961C4.39815 19.3934 4.2002 18.9013 4.2002 18.3196V16.7315C4.2002 16.5375 4.26618 16.3734 4.39815 16.2392C4.53012 16.1049 4.69129 16.0378 4.88168 16.0378H6.90554V4.15901C6.90554 4.01011 6.96783 3.92062 7.0924 3.89056C7.21698 3.86085 7.33786 3.90559 7.45505 4.02478L8.11489 4.6959L9.10465 3.71177C9.1782 3.63732 9.26248 3.6001 9.3575 3.6001C9.45287 3.6001 9.53733 3.63732 9.61088 3.71177L10.5785 4.6959L11.5682 3.71177C11.6414 3.63732 11.7257 3.6001 11.8211 3.6001C11.9164 3.6001 12.0007 3.63732 12.0739 3.71177L13.042 4.6959L14.0318 3.71177C14.105 3.63732 14.1893 3.6001 14.2847 3.6001C14.38 3.6001 14.4643 3.63732 14.5375 3.71177L15.5273 4.6959L16.517 3.71177C16.5758 3.63732 16.6527 3.6001 16.7477 3.6001C16.8431 3.6001 16.9275 3.63732 17.0011 3.71177L17.9908 4.6959L18.6507 4.02478C18.7679 3.90559 18.8888 3.86085 19.0133 3.89056C19.1379 3.92062 19.2002 4.01762 19.2002 4.18156V18.3196C19.2002 18.9013 19.0022 19.3934 18.6063 19.7961C18.2104 20.1988 17.7339 20.4001 17.1769 20.4001H6.22353ZM17.1769 19.2817C17.4408 19.2817 17.6607 19.1923 17.8367 19.0133C18.0127 18.8343 18.1006 18.6031 18.1006 18.3196V5.41212H8.00509V16.0378H15.5494C15.7398 16.0378 15.901 16.1049 16.033 16.2392C16.1649 16.3734 16.2309 16.5375 16.2309 16.7315V18.3196C16.2309 18.6031 16.3189 18.8343 16.4949 19.0133C16.6708 19.1923 16.8981 19.2817 17.1769 19.2817ZM9.72068 8.74517C9.57393 8.74517 9.44935 8.68915 9.34694 8.57712C9.24418 8.46545 9.19281 8.33498 9.19281 8.18572C9.19281 8.02179 9.2477 7.88757 9.3575 7.78305C9.46765 7.67889 9.5961 7.62681 9.74285 7.62681H13.6359C13.7971 7.62681 13.929 7.67889 14.0318 7.78305C14.1342 7.88757 14.1854 8.02179 14.1854 8.18572C14.1854 8.35001 14.1342 8.48424 14.0318 8.58839C13.929 8.69291 13.7971 8.74517 13.6359 8.74517H9.72068ZM9.72068 11.5864C9.57393 11.5864 9.44935 11.5304 9.34694 11.4184C9.24418 11.3067 9.19281 11.1762 9.19281 11.027C9.19281 10.863 9.2477 10.7288 9.3575 10.6243C9.46765 10.5198 9.5961 10.4675 9.74285 10.4675H13.6359C13.7971 10.4675 13.929 10.5198 14.0318 10.6243C14.1342 10.7288 14.1854 10.863 14.1854 11.027C14.1854 11.1909 14.1342 11.3251 14.0318 11.4296C13.929 11.5342 13.7971 11.5864 13.6359 11.5864H9.72068ZM16.1649 8.87939C15.9745 8.87939 15.8134 8.80852 15.6814 8.66678C15.5494 8.52504 15.4835 8.36469 15.4835 8.18572C15.4835 8.00676 15.5494 7.85016 15.6814 7.71594C15.8134 7.58172 15.9745 7.5146 16.1649 7.5146C16.3409 7.5146 16.4949 7.58172 16.6268 7.71594C16.7588 7.85016 16.8248 8.00676 16.8248 8.18572C16.8248 8.36469 16.7588 8.52504 16.6268 8.66678C16.4949 8.80852 16.3409 8.87939 16.1649 8.87939ZM16.1649 11.6535C15.9745 11.6535 15.8134 11.5864 15.6814 11.4522C15.5494 11.318 15.4835 11.1614 15.4835 10.9824C15.4835 10.7884 15.5494 10.6243 15.6814 10.4901C15.8134 10.3559 15.9745 10.2887 16.1649 10.2887C16.3409 10.2887 16.4949 10.3559 16.6268 10.4901C16.7588 10.6243 16.8248 10.7884 16.8248 10.9824C16.8248 11.1614 16.7588 11.318 16.6268 11.4522C16.4949 11.5864 16.3409 11.6535 16.1649 11.6535ZM6.22353 19.2817H15.1314V17.1567H5.29975V18.3196C5.29975 18.6031 5.38773 18.8343 5.56369 19.0133C5.73964 19.1923 5.95959 19.2817 6.22353 19.2817ZM5.29975 19.2817C5.29975 19.2817 5.29975 19.1923 5.29975 19.0133C5.29975 18.8343 5.29975 18.6031 5.29975 18.3196V17.1567V19.2817Z" fill="#808799"/>
</g>
</svg>
