<svg width="43" height="57" viewBox="0 0 43 57" fill="none" xmlns="http://www.w3.org/2000/svg">
<path opacity="0.6" d="M42.8178 22.8422C43.7111 16.8719 39.1648 13.6624 32.9484 11.5214L34.9649 3.43384L30.0415 2.20697L28.0783 10.0814C26.7839 9.75887 25.4545 9.45463 24.1336 9.15317L26.1108 1.22687L21.1901 0L19.1722 8.08471C18.1009 7.84073 17.0491 7.5996 16.0283 7.34581L16.0339 7.32057L9.24397 5.62536L7.93424 10.8834C7.93424 10.8834 11.5872 11.7205 11.5101 11.7723C13.5042 12.2701 13.8645 13.5895 13.8042 14.6355L11.5073 23.8489C11.6447 23.884 11.8228 23.9345 12.0191 24.013C11.8551 23.9723 11.6798 23.9275 11.4989 23.884L8.27916 36.7907C8.03516 37.3964 7.41678 38.305 6.02289 37.96C6.07197 38.0315 2.44422 37.0669 2.44422 37.0669L0 42.7021L6.40711 44.2991C7.59906 44.5977 8.76716 44.9104 9.91705 45.2049L7.87955 53.3849L12.7974 54.6118L14.8153 46.5187C16.1587 46.8832 17.4628 47.2198 18.7389 47.5367L16.7281 55.5919L21.6515 56.8188L23.689 48.6542C32.0846 50.2428 38.3978 49.602 41.0551 42.0094C43.1964 35.8961 40.9485 32.3697 36.5313 30.0702C39.7482 29.3285 42.1713 27.2127 42.8178 22.8422ZM31.5686 38.6149C30.0471 44.7282 19.7528 41.4233 16.4153 40.5947L19.119 29.7575C22.4564 30.5904 33.1588 32.2393 31.5686 38.6149ZM33.0914 22.7539C31.7032 28.3147 23.1351 25.4894 20.3558 24.7968L22.807 14.9678C25.5864 15.6605 34.5372 16.9532 33.0914 22.7539Z" fill="white"/>
</svg>
