<svg width="24" height="24" viewBox="0 0 24 24" fill="none" xmlns="http://www.w3.org/2000/svg">
<path d="M14.1724 0.398926C14.327 0.399131 14.4558 0.506486 14.5034 0.652832C14.5944 0.931445 15.6994 4.32409 16.7817 7.99072C17.323 9.82428 17.8586 11.7274 18.2593 13.3442C18.6588 14.9563 18.9282 16.2969 18.9282 16.9976C18.9282 19.9187 16.805 22.3157 14.1724 22.3159C13.2754 22.3159 12.4106 22.0342 11.6548 21.5044C10.8993 22.0337 10.0356 22.3158 9.13916 22.3159H9.08447L9.08252 22.313C6.47583 22.2792 4.3833 19.898 4.3833 16.9976C4.38332 16.2868 4.65427 15.2342 5.05615 14.061C5.45933 12.8841 5.99858 11.5732 6.54248 10.3394C7.62978 7.87287 8.73939 5.70884 8.83154 5.52979C8.89165 5.41296 9.00769 5.33447 9.13916 5.33447C9.27007 5.33465 9.38481 5.41249 9.44482 5.52881C9.45475 5.54794 10.2827 7.16435 11.2134 9.19189C12.4223 5.00547 13.8198 0.715777 13.8403 0.652832C13.888 0.506347 14.0175 0.398926 14.1724 0.398926ZM14.1714 1.93896C13.6324 3.62444 12.5364 7.10556 11.6245 10.3306C11.5839 10.474 11.4658 10.5849 11.3169 10.5981C11.1679 10.6111 11.0332 10.5211 10.9722 10.3843C10.252 8.76942 9.53222 7.30171 9.13818 6.51221C8.65683 7.47706 7.69114 9.45492 6.82275 11.4888C6.3595 12.5738 5.92492 13.6738 5.60596 14.6431C5.28594 15.6156 5.08647 16.4458 5.08643 16.9976C5.08643 19.5193 6.91517 21.5513 9.13916 21.5513C9.96738 21.5512 10.7662 21.2696 11.4497 20.7349C11.5102 20.6875 11.5826 20.6626 11.6558 20.6626C11.7287 20.6627 11.8005 20.6876 11.8608 20.7349C12.5445 21.2697 13.344 21.5513 14.1724 21.5513C16.3962 21.551 18.2241 19.5192 18.2241 16.9976C18.2241 16.4403 18.025 15.3825 17.7065 14.0532C17.3891 12.7279 16.9564 11.1438 16.4946 9.5415C15.6307 6.54413 14.6656 3.48544 14.1714 1.93896Z" fill="#808799" stroke="#808799" stroke-width="0.2"/>
<path d="M12.9141 10.9756C13.0563 10.9758 13.1782 11.0676 13.2334 11.1982C13.3319 11.4314 13.8107 12.5735 14.2646 13.8076C14.4917 14.4249 14.7131 15.0668 14.8779 15.6299C15.0416 16.1891 15.1523 16.6828 15.1523 16.998C15.1522 18.364 14.1589 19.4948 12.9141 19.4951C12.4615 19.4951 12.0247 19.3399 11.6553 19.0586C11.3183 19.3154 10.9257 19.4649 10.5156 19.4893L10.5166 19.4951H10.3975C9.1523 19.4951 8.15822 18.3641 8.1582 16.998C8.1582 16.674 8.27201 16.2525 8.43848 15.8066C8.60595 15.3581 8.83058 14.874 9.06055 14.4199C9.52051 13.5117 10.0047 12.7166 10.1045 12.5547L10.1602 12.4844C10.2229 12.4223 10.3071 12.3857 10.3975 12.3857C10.5181 12.3859 10.6263 12.4521 10.6895 12.5547L10.9775 13.041C11.1229 13.2916 11.308 13.6216 11.502 13.9854C12.0092 12.5912 12.574 11.2449 12.5938 11.1982L12.6475 11.1074C12.7117 11.0266 12.8074 10.9756 12.9141 10.9756ZM12.9141 12.3008C12.6327 12.9985 12.2173 14.0531 11.8906 15.0146C11.8446 15.15 11.729 15.2527 11.5859 15.2637H11.584C11.4404 15.2718 11.3144 15.1919 11.251 15.0625C10.9558 14.4582 10.6251 13.8702 10.3955 13.4736C10.1095 13.9671 9.74742 14.6281 9.44629 15.2646C9.27998 15.6162 9.1325 15.9586 9.02734 16.2607C8.92127 16.5655 8.86133 16.8199 8.86133 16.998C8.86133 17.9646 9.56116 18.7314 10.3975 18.7314C10.7705 18.7313 11.1322 18.5762 11.416 18.291C11.4821 18.2246 11.568 18.1895 11.6553 18.1895C11.7423 18.1895 11.8283 18.2244 11.8945 18.291C12.1785 18.5763 12.541 18.7314 12.9141 18.7314C13.7502 18.7312 14.4492 17.9645 14.4492 16.998C14.4492 16.8147 14.3883 16.5095 14.2822 16.1221C14.177 15.7379 14.0305 15.2826 13.8643 14.8047C13.5655 13.9457 13.2029 13.0176 12.9141 12.3008Z" fill="#808799" stroke="#808799" stroke-width="0.2"/>
</svg>
