<svg width="24" height="24" viewBox="0 0 24 24" fill="none" xmlns="http://www.w3.org/2000/svg">
<mask id="mask0_1_965" style="mask-type:alpha" maskUnits="userSpaceOnUse" x="0" y="0" width="24" height="24">
<rect width="24" height="24" fill="#D9D9D9"/>
</mask>
<g mask="url(#mask0_1_965)">
<path d="M6.1247 19.65C5.9083 19.65 5.7251 19.575 5.5751 19.425C5.4251 19.275 5.3501 19.0916 5.3501 18.8748V10.8252C5.3501 10.6584 5.4083 10.5124 5.5247 10.3872C5.6415 10.2624 5.7915 10.2 5.9747 10.2C6.1583 10.2 6.3083 10.2624 6.4247 10.3872C6.5415 10.5124 6.5999 10.6584 6.5999 10.8252V17.5248L18.4499 5.67484C18.5499 5.55844 18.6875 5.50024 18.8627 5.50024C19.0375 5.50024 19.1833 5.56684 19.3001 5.70004C19.4333 5.81684 19.4999 5.96264 19.4999 6.13744C19.4999 6.31264 19.4333 6.45844 19.3001 6.57484L7.4999 18.4002H14.1749C14.3417 18.4002 14.4875 18.4584 14.6123 18.5748C14.7375 18.6916 14.8001 18.8416 14.8001 19.0248C14.8001 19.2084 14.7375 19.3584 14.6123 19.4748C14.4875 19.5916 14.3417 19.65 14.1749 19.65H6.1247Z" fill="#808799"/>
</g>
</svg>
