<svg width="24" height="24" viewBox="0 0 24 24" fill="none" xmlns="http://www.w3.org/2000/svg">
<mask id="mask0_1_968" style="mask-type:alpha" maskUnits="userSpaceOnUse" x="0" y="0" width="24" height="24">
<rect width="24" height="24" fill="#D9D9D9"/>
</mask>
<g mask="url(#mask0_1_968)">
<path d="M4.7999 19.2C4.6667 19.0668 4.6001 18.9168 4.6001 18.75C4.6001 18.5832 4.6667 18.4416 4.7999 18.3252L16.6001 6.4998H9.9251C9.7415 6.4998 9.5915 6.4416 9.4751 6.3252C9.3583 6.2084 9.2999 6.0584 9.2999 5.8752C9.2999 5.6916 9.3583 5.5416 9.4751 5.4252C9.5915 5.3084 9.7415 5.25 9.9251 5.25H17.9747C18.1915 5.25 18.3749 5.325 18.5249 5.475C18.6749 5.625 18.7499 5.8084 18.7499 6.0252V14.0748C18.7499 14.2584 18.6875 14.4084 18.5627 14.5248C18.4375 14.6416 18.2915 14.7 18.1247 14.7C17.9415 14.7 17.7915 14.6416 17.6747 14.5248C17.5583 14.4084 17.5001 14.2584 17.5001 14.0748V7.3998L5.6501 19.2252C5.5333 19.3416 5.3915 19.3998 5.2247 19.3998C5.0583 19.3998 4.9167 19.3332 4.7999 19.2Z" fill="#808799"/>
</g>
</svg>
