<svg width="24" height="24" viewBox="0 0 24 24" fill="none" xmlns="http://www.w3.org/2000/svg">
<mask id="mask0_1_892" style="mask-type:alpha" maskUnits="userSpaceOnUse" x="0" y="0" width="24" height="24">
<rect width="24" height="24" fill="#D9D9D9"/>
</mask>
<g mask="url(#mask0_1_892)">
<path d="M13.5498 17.2002L8.8998 12.5502C8.8166 12.4666 8.7584 12.379 8.7252 12.2874C8.6916 12.1958 8.6748 12.1 8.6748 12C8.6748 11.8832 8.6916 11.7832 8.7252 11.7C8.7584 11.6168 8.8166 11.5334 8.8998 11.4498L13.575 6.75003C13.6918 6.63323 13.8376 6.57483 14.0124 6.57483C14.1876 6.57483 14.3418 6.63323 14.475 6.75003C14.5918 6.88323 14.6502 7.03743 14.6502 7.21263C14.6502 7.38743 14.5834 7.54163 14.4498 7.67523L10.125 12L14.475 16.3248C14.5918 16.4416 14.6502 16.5834 14.6502 16.7502C14.6502 16.9166 14.5918 17.0666 14.475 17.2002C14.3418 17.3334 14.1876 17.4 14.0124 17.4C13.8376 17.4 13.6834 17.3334 13.5498 17.2002Z" fill="#808799"/>
</g>
</svg>
