<svg width="24" height="24" viewBox="0 0 24 24" fill="none" xmlns="http://www.w3.org/2000/svg">
<mask id="mask0_1_901" style="mask-type:alpha" maskUnits="userSpaceOnUse" x="0" y="0" width="24" height="24">
<rect width="24" height="24" fill="#D9D9D9"/>
</mask>
<g mask="url(#mask0_1_901)">
<path d="M8.54991 18.2748C8.09991 18.2748 7.72071 18.1248 7.41231 17.8248C7.10391 17.5248 6.94971 17.1582 6.94971 16.725V4.34997C6.94971 3.91677 7.10391 3.55017 7.41231 3.25017C7.72071 2.95017 8.09991 2.80017 8.54991 2.80017H17.8751C18.3083 2.80017 18.6791 2.95437 18.9875 3.26277C19.2959 3.57077 19.4501 3.93317 19.4501 4.34997V16.725C19.4501 17.1582 19.2959 17.5248 18.9875 17.8248C18.6791 18.1248 18.3083 18.2748 17.8751 18.2748H8.54991ZM8.54991 17.025H17.8751C17.9751 17.025 18.0501 16.9958 18.1001 16.9374C18.1501 16.879 18.1751 16.8082 18.1751 16.725V4.34997C18.1751 4.26677 18.1501 4.19597 18.1001 4.13757C18.0501 4.07917 17.9751 4.04997 17.8751 4.04997H8.54991C8.44991 4.04997 8.36651 4.07917 8.29971 4.13757C8.23331 4.19597 8.20011 4.26677 8.20011 4.34997V16.725C8.20011 16.8082 8.23331 16.879 8.29971 16.9374C8.36651 16.9958 8.44991 17.025 8.54991 17.025ZM5.50011 21.3C5.08331 21.3 4.72071 21.1458 4.41231 20.8374C4.10391 20.529 3.94971 20.1582 3.94971 19.725V7.15017C3.94971 6.96657 4.00811 6.81657 4.12491 6.70017C4.24171 6.58337 4.39171 6.52497 4.57491 6.52497C4.75811 6.52497 4.90811 6.58337 5.02491 6.70017C5.14171 6.81657 5.20011 6.96657 5.20011 7.15017V19.725C5.20011 19.8082 5.23331 19.8832 5.29971 19.95C5.36651 20.0168 5.43331 20.0502 5.50011 20.0502H14.9747C15.1583 20.0502 15.3083 20.1084 15.4247 20.2248C15.5415 20.3416 15.5999 20.4916 15.5999 20.6748C15.5999 20.8584 15.5415 21.0084 15.4247 21.1248C15.3083 21.2416 15.1583 21.3 14.9747 21.3H5.50011Z" fill="#808799"/>
</g>
</svg>
