<svg width="24" height="24" viewBox="0 0 24 24" fill="none" xmlns="http://www.w3.org/2000/svg">
<mask id="mask0_1_959" style="mask-type:alpha" maskUnits="userSpaceOnUse" x="0" y="0" width="24" height="24">
<rect width="24" height="24" fill="#D9D9D9"/>
</mask>
<g mask="url(#mask0_1_959)">
<path d="M12 22.5C10.05 22.5 8.2416 21.9584 6.5748 20.8752C4.9084 19.7916 3.6168 18.4332 2.7 16.8V19.5252C2.7 19.7084 2.6416 19.8584 2.5248 19.9752C2.4084 20.0916 2.2584 20.1498 2.0748 20.1498C1.8916 20.1498 1.7416 20.0916 1.6248 19.9752C1.5084 19.8584 1.4502 19.7084 1.4502 19.5252V15.4248C1.4502 15.2084 1.5252 15.0252 1.6752 14.8752C1.8252 14.7252 2.0084 14.6502 2.2248 14.6502H6.32519C6.5084 14.6502 6.65839 14.7084 6.7752 14.8248C6.89159 14.9416 6.9498 15.0916 6.9498 15.2748C6.9498 15.4584 6.89159 15.6084 6.7752 15.7248C6.65839 15.8416 6.5084 15.9 6.32519 15.9H3.6498C4.3998 17.4 5.5456 18.6666 7.0872 19.6998C8.6292 20.7334 10.2668 21.2502 12 21.2502C14.4 21.2502 16.4792 20.4502 18.2376 18.8502C19.996 17.2502 20.9834 15.2584 21.1998 12.8748C21.2166 12.6916 21.2876 12.5416 21.4128 12.4248C21.5376 12.3084 21.6834 12.2502 21.8502 12.2502C22.0334 12.2502 22.1876 12.3126 22.3128 12.4374C22.4376 12.5626 22.4834 12.7084 22.4502 12.8748C22.3502 14.2248 22.0044 15.4832 21.4128 16.65C20.8208 17.8168 20.0582 18.8334 19.125 19.6998C18.1918 20.5666 17.1126 21.25 15.8874 21.75C14.6626 22.25 13.3668 22.5 12 22.5ZM2.1498 11.7498C1.9666 11.7498 1.8124 11.6874 1.6872 11.5626C1.5624 11.4374 1.5166 11.2916 1.5498 11.1252C1.6666 9.7416 2.0208 8.4666 2.6124 7.3002C3.204 6.1334 3.9708 5.1166 4.9128 4.2498C5.85439 3.3834 6.9334 2.7084 8.1498 2.2248C9.3666 1.7416 10.65 1.5 12 1.5C13.9332 1.5 15.7456 2.0458 17.4372 3.1374C19.1292 4.229 20.4168 5.5916 21.3 7.2252V4.4748C21.3 4.2916 21.3584 4.1416 21.4752 4.0248C21.5916 3.9084 21.7416 3.8502 21.9252 3.8502C22.1084 3.8502 22.2584 3.9084 22.3752 4.0248C22.4916 4.1416 22.5498 4.2916 22.5498 4.4748V8.5752C22.5498 8.7916 22.4748 8.9748 22.3248 9.1248C22.1748 9.2748 21.9916 9.3498 21.7752 9.3498H17.6748C17.4916 9.3498 17.3416 9.2916 17.2248 9.1752C17.1084 9.0584 17.0502 8.9084 17.0502 8.7252C17.0502 8.5416 17.1084 8.3916 17.2248 8.2752C17.3416 8.1584 17.4916 8.1 17.6748 8.1H20.3502C19.6166 6.6168 18.479 5.3544 16.9374 4.3128C15.3958 3.2708 13.75 2.7498 12 2.7498C9.63319 2.7498 7.5666 3.5374 5.8002 5.1126C4.0334 6.6874 3.0334 8.6916 2.8002 11.1252C2.7834 11.3084 2.7124 11.4584 2.5872 11.5752C2.4624 11.6916 2.3166 11.7498 2.1498 11.7498ZM11.9748 18.9C11.8248 18.9 11.6874 18.8416 11.5626 18.7248C11.4374 18.6084 11.3748 18.4668 11.3748 18.3V17.5998C10.7584 17.4498 10.221 17.2124 9.7626 16.8876C9.30419 16.5624 8.92499 16.1248 8.625 15.5748C8.52499 15.4248 8.50839 15.2748 8.57519 15.1248C8.64159 14.9748 8.75819 14.8582 8.92499 14.775C9.0582 14.7418 9.1956 14.7502 9.33719 14.8002C9.47919 14.8502 9.5834 14.9418 9.64979 15.075C9.9166 15.5582 10.2708 15.9332 10.7124 16.2C11.154 16.4668 11.6332 16.6002 12.15 16.6002C12.7832 16.6002 13.3374 16.4292 13.8126 16.0872C14.2874 15.7456 14.5248 15.2582 14.5248 14.625C14.5248 14.0918 14.3374 13.6626 13.9626 13.3374C13.5874 13.0126 12.8332 12.6334 11.7 12.1998C10.6 11.7998 9.8292 11.3708 9.38759 10.9128C8.94599 10.4544 8.72519 9.8418 8.72519 9.075C8.72519 8.3918 8.96259 7.8002 9.4374 7.3002C9.91259 6.8002 10.5752 6.4834 11.4252 6.3498V5.7C11.4252 5.55 11.4876 5.4166 11.6124 5.2998C11.7376 5.1834 11.8752 5.1252 12.0252 5.1252C12.1752 5.1252 12.3126 5.1834 12.4374 5.2998C12.5626 5.4166 12.6252 5.55 12.6252 5.7V6.3498C13.0916 6.3834 13.5248 6.5168 13.9248 6.75C14.3248 6.9832 14.6666 7.2916 14.9502 7.6752C15.0502 7.8084 15.071 7.9542 15.0126 8.1126C14.9542 8.271 14.85 8.3834 14.7 8.4498C14.5668 8.5166 14.4292 8.525 14.2872 8.475C14.1456 8.425 14.0248 8.35 13.9248 8.25C13.7084 7.9668 13.4418 7.746 13.125 7.5876C12.8082 7.4292 12.4498 7.35 12.0498 7.35C11.3998 7.35 10.879 7.5084 10.4874 7.8252C10.0958 8.1416 9.89999 8.5582 9.89999 9.075C9.89999 9.5918 10.075 10.0044 10.425 10.3128C10.775 10.6208 11.4916 10.9582 12.5748 11.325C13.7584 11.7418 14.5752 12.2044 15.0252 12.7128C15.4752 13.2208 15.7002 13.8582 15.7002 14.625C15.7002 15.5418 15.3918 16.2544 14.775 16.7628C14.1582 17.2708 13.4248 17.5666 12.5748 17.6502V18.3C12.5748 18.45 12.5124 18.5876 12.3876 18.7128C12.2624 18.8376 12.1248 18.9 11.9748 18.9Z" fill="#808799"/>
</g>
</svg>
