<svg width="24" height="24" viewBox="0 0 24 24" fill="none" xmlns="http://www.w3.org/2000/svg">
<mask id="mask0_1_839" style="mask-type:alpha" maskUnits="userSpaceOnUse" x="0" y="0" width="24" height="24">
<rect width="24" height="24" fill="#D9D9D9"/>
</mask>
<g mask="url(#mask0_1_839)">
<path d="M7.8748 12.6H16.15C16.3164 12.6 16.458 12.5376 16.5748 12.4128C16.6916 12.2876 16.75 12.1334 16.75 11.9502C16.75 11.7834 16.6916 11.6376 16.5748 11.5128C16.458 11.3876 16.308 11.325 16.1248 11.325H7.8496C7.6832 11.325 7.5416 11.3876 7.4248 11.5128C7.308 11.6376 7.2496 11.7916 7.2496 11.9748C7.2496 12.1416 7.308 12.2876 7.4248 12.4128C7.5416 12.5376 7.6916 12.6 7.8748 12.6ZM11.9998 21.4998C10.6666 21.4998 9.425 21.254 8.275 20.7624C7.125 20.2708 6.1208 19.5958 5.2624 18.7374C4.404 17.879 3.729 16.8748 3.2374 15.7248C2.7458 14.5748 2.5 13.3332 2.5 12C2.5 10.6832 2.7458 9.44584 3.2374 8.28784C3.729 7.12944 4.404 6.12104 5.2624 5.26264C6.1208 4.40424 7.125 3.72924 8.275 3.23764C9.425 2.74604 10.6666 2.50024 11.9998 2.50024C13.3166 2.50024 14.5542 2.74604 15.7126 3.23764C16.8706 3.72924 17.8788 4.40424 18.7372 5.26264C19.5956 6.12104 20.2706 7.12944 20.7622 8.28784C21.2538 9.44584 21.4996 10.6832 21.4996 12C21.4996 13.3332 21.2538 14.5748 20.7622 15.7248C20.2706 16.8748 19.5956 17.879 18.7372 18.7374C17.8788 19.5958 16.8706 20.2708 15.7126 20.7624C14.5542 21.254 13.3166 21.4998 11.9998 21.4998ZM11.9998 20.25C14.3166 20.25 16.2708 19.4542 17.8624 17.8626C19.454 16.271 20.2498 14.3168 20.2498 12C20.2498 9.68324 19.454 7.72904 17.8624 6.13744C16.2708 4.54584 14.3166 3.75004 11.9998 3.75004C9.683 3.75004 7.7288 4.54584 6.1372 6.13744C4.5456 7.72904 3.7498 9.68324 3.7498 12C3.7498 14.3168 4.5456 16.271 6.1372 17.8626C7.7288 19.4542 9.683 20.25 11.9998 20.25Z" fill="#808799"/>
</g>
</svg>
