<svg width="24" height="24" viewBox="0 0 24 24" fill="none" xmlns="http://www.w3.org/2000/svg">
<mask id="mask0_1_895" style="mask-type:alpha" maskUnits="userSpaceOnUse" x="0" y="0" width="24" height="24">
<rect width="24" height="24" fill="#D9D9D9"/>
</mask>
<g mask="url(#mask0_1_895)">
<path d="M5.89996 19.7502C5.71676 19.7502 5.56256 19.6918 5.43736 19.575C5.31256 19.4582 5.25016 19.3082 5.25016 19.125C5.25016 18.9418 5.31256 18.7918 5.43736 18.675C5.56256 18.5582 5.71676 18.4998 5.89996 18.4998H18.125C18.3086 18.4998 18.4586 18.5582 18.575 18.675C18.6918 18.7918 18.7502 18.9418 18.7502 19.125C18.7502 19.3082 18.6918 19.4582 18.575 19.575C18.4586 19.6918 18.3086 19.7502 18.125 19.7502H5.89996ZM9.52516 15.1998C9.42516 15.1998 9.33356 15.1832 9.25036 15.15C9.16676 15.1168 9.08336 15.0584 9.00016 14.9748L4.67536 10.65C4.54176 10.5332 4.47916 10.3874 4.48756 10.2126C4.49596 10.0374 4.56676 9.89156 4.69996 9.77516C4.81676 9.64156 4.95856 9.57476 5.12536 9.57476C5.29176 9.57476 5.44176 9.64156 5.57536 9.77516L9.52516 13.725L18.4754 4.79996C18.5918 4.68316 18.7376 4.62476 18.9128 4.62476C19.0876 4.62476 19.2334 4.68316 19.3502 4.79996C19.467 4.93316 19.5254 5.08736 19.5254 5.26256C19.5254 5.43736 19.467 5.58316 19.3502 5.69996L10.0754 14.9748C9.99176 15.0584 9.90836 15.1168 9.82516 15.15C9.74196 15.1832 9.64196 15.1998 9.52516 15.1998Z" fill="#808799"/>
</g>
</svg>
