<svg width="24" height="24" viewBox="0 0 24 24" fill="none" xmlns="http://www.w3.org/2000/svg">
<mask id="mask0_1_934" style="mask-type:alpha" maskUnits="userSpaceOnUse" x="0" y="0" width="24" height="24">
<rect width="24" height="24" fill="#D9D9D9"/>
</mask>
<g mask="url(#mask0_1_934)">
<path d="M9.2248 20.5001L11.9998 17.7497H20.125C20.4914 17.7497 20.8122 17.8831 21.0874 18.1499C21.3622 18.4167 21.4996 18.7417 21.4996 19.1249C21.4996 19.5081 21.3622 19.8331 21.0874 20.0999C20.8122 20.3667 20.4914 20.5001 20.125 20.5001H9.2248ZM3.7498 19.2497H4.8496L15.2998 8.80012L14.2 7.69972L3.7498 18.1499V19.2497ZM17.9746 7.90012L15.1 5.02492L16.2496 3.89992C16.4832 3.64992 16.779 3.52912 17.137 3.53752C17.4954 3.54592 17.7914 3.66672 18.025 3.89992L19.1248 4.97512C19.358 5.20832 19.4746 5.49992 19.4746 5.84992C19.4746 6.19992 19.358 6.49992 19.1248 6.74992L17.9746 7.90012ZM3.2998 20.5001C3.0666 20.5001 2.875 20.4251 2.725 20.2751C2.575 20.1251 2.5 19.9417 2.5 19.7249V17.9501C2.5 17.8501 2.5166 17.7543 2.5498 17.6627C2.583 17.5707 2.6414 17.4831 2.725 17.3999L14.2246 5.92492L17.0746 8.77492L5.5996 20.2751C5.5164 20.3583 5.429 20.4165 5.3374 20.4497C5.2458 20.4833 5.15 20.5001 5.05 20.5001H3.2998Z" fill="#808799"/>
</g>
</svg>
