<svg width="24" height="24" viewBox="0 0 24 24" fill="none" xmlns="http://www.w3.org/2000/svg">
<mask id="mask0_1_886" style="mask-type:alpha" maskUnits="userSpaceOnUse" x="0" y="0" width="24" height="24">
<rect width="24" height="24" fill="#D9D9D9"/>
</mask>
<g mask="url(#mask0_1_886)">
<path d="M6.7999 14.5752C6.6667 14.4584 6.6001 14.3166 6.6001 14.1498C6.6001 13.9834 6.6667 13.8334 6.7999 13.6998L11.4499 9.02517C11.5335 8.95837 11.6211 8.90417 11.7127 8.86257C11.8043 8.82097 11.9001 8.80017 12.0001 8.80017C12.1001 8.80017 12.1959 8.82097 12.2875 8.86257C12.3791 8.90417 12.4667 8.95837 12.5503 9.02517L17.2249 13.6998C17.3417 13.8166 17.4001 13.9584 17.4001 14.1252C17.4001 14.2916 17.3417 14.4416 17.2249 14.5752C17.0917 14.6916 16.9377 14.7498 16.7629 14.7498C16.5877 14.7498 16.4417 14.6916 16.3249 14.5752L12.0001 10.275L7.6753 14.5998C7.5585 14.7334 7.4167 14.796 7.2499 14.7876C7.0835 14.7792 6.9335 14.7084 6.7999 14.5752Z" fill="#808799"/>
</g>
</svg>
