<svg width="24" height="24" viewBox="0 0 24 24" fill="none" xmlns="http://www.w3.org/2000/svg">
<path d="M17.9058 22C17.8118 22 17.7201 21.9703 17.6441 21.915L12.0004 17.8288L6.35662 21.915C6.20072 22.0281 5.98937 22.0281 5.83346 21.9152C5.67741 21.8023 5.61197 21.6022 5.67144 21.4194L7.82729 14.8074L2.18355 10.7208C2.0275 10.6079 1.96221 10.4077 2.02183 10.225C2.08145 10.0421 2.25241 9.91838 2.44529 9.91852H9.42069L11.5765 3.30658C11.6362 3.12373 11.8071 3 12 3C12.1929 3 12.3638 3.12373 12.4235 3.30658L14.5793 9.91852H21.5547C21.7476 9.91838 21.9185 10.0421 21.9782 10.225C22.0378 10.4077 21.9725 10.6079 21.8165 10.7208L16.1727 14.8074L18.3286 21.4194C18.3724 21.5544 18.3488 21.7023 18.2651 21.8171C18.1813 21.9318 18.0476 21.9999 17.9051 22L17.9058 22ZM12.0003 16.8365C12.0944 16.8365 12.1861 16.8662 12.2621 16.9214L17.0587 20.3947L15.2263 14.7749L15.2265 14.7747C15.1669 14.592 15.2321 14.3919 15.3882 14.2792L20.1852 10.8055H14.2561C14.0631 10.8055 13.8921 10.6816 13.8326 10.4987L12.0002 4.87927L10.1679 10.4987C10.1084 10.6816 9.93742 10.8055 9.74439 10.8055H3.81524L8.61229 14.2792C8.76834 14.3919 8.83362 14.5922 8.77401 14.7747L6.94161 20.3946L11.7383 16.9213L11.7384 16.9214C11.8144 16.8662 11.9061 16.8365 12.0002 16.8365H12.0003Z" fill="#808799"/>
</svg>
