<svg width="24" height="24" viewBox="0 0 24 24" fill="none" xmlns="http://www.w3.org/2000/svg">
<mask id="mask0_1_956" style="mask-type:alpha" maskUnits="userSpaceOnUse" x="0" y="0" width="24" height="24">
<rect width="24" height="24" fill="#D9D9D9"/>
</mask>
<g mask="url(#mask0_1_956)">
<path d="M13.5002 12.825V18.6252C13.5002 18.8752 13.4168 19.0834 13.25 19.2498C13.0836 19.4166 12.8754 19.5 12.6254 19.5H11.375C11.125 19.5 10.9168 19.4166 10.7504 19.2498C10.5836 19.0834 10.5002 18.8752 10.5002 18.6252V12.825L4.82542 5.5998C4.64182 5.3834 4.61682 5.146 4.75042 4.8876C4.88362 4.6292 5.08362 4.5 5.35042 4.5H18.65C18.9168 4.5 19.1168 4.6292 19.25 4.8876C19.3836 5.146 19.3586 5.3834 19.175 5.5998L13.5002 12.825ZM12.0002 12.7002L17.4752 5.7498H6.52522L12.0002 12.7002Z" fill="#808799"/>
</g>
</svg>
