<svg width="24" height="24" viewBox="0 0 24 24" fill="none" xmlns="http://www.w3.org/2000/svg">
<mask id="mask0_1_913" style="mask-type:alpha" maskUnits="userSpaceOnUse" x="0" y="0" width="24" height="24">
<rect width="24" height="24" fill="#D9D9D9"/>
</mask>
<g mask="url(#mask0_1_913)">
<path d="M12 12.3498C12.1832 12.3498 12.3332 12.2916 12.45 12.1752C12.5668 12.0584 12.6252 11.9084 12.6252 11.7252V8.0748C12.6252 7.8916 12.5668 7.7416 12.45 7.6248C12.3332 7.5084 12.1832 7.4502 12 7.4502C11.8168 7.4502 11.6668 7.5084 11.55 7.6248C11.4332 7.7416 11.3748 7.8916 11.3748 8.0748V11.7252C11.3748 11.9084 11.4332 12.0584 11.55 12.1752C11.6668 12.2916 11.8168 12.3498 12 12.3498ZM12 15.45C12.2168 15.45 12.3918 15.3792 12.525 15.2376C12.6582 15.096 12.7248 14.9252 12.7248 14.7252C12.7248 14.5084 12.6582 14.3292 12.525 14.1876C12.3918 14.046 12.2168 13.9752 12 13.9752C11.7832 13.9752 11.6082 14.046 11.475 14.1876C11.3418 14.3292 11.2752 14.5 11.2752 14.7C11.2752 14.9168 11.3418 15.096 11.475 15.2376C11.6082 15.3792 11.7832 15.45 12 15.45ZM12 21.4002C11.9332 21.4002 11.8666 21.4002 11.8002 21.4002C11.7334 21.4002 11.675 21.3834 11.625 21.3498C9.5582 20.6834 7.854 19.3834 6.5124 17.4498C5.1708 15.5166 4.5 13.375 4.5 11.025V6.4248C4.5 6.0916 4.5958 5.7916 4.7874 5.5248C4.979 5.2584 5.2248 5.0668 5.5248 4.95L11.4498 2.7252C11.6334 2.6584 11.8168 2.625 12 2.625C12.1832 2.625 12.3666 2.6584 12.5502 2.7252L18.4752 4.95C18.7752 5.0668 19.021 5.2584 19.2126 5.5248C19.4042 5.7916 19.5 6.0916 19.5 6.4248V11.025C19.5 13.375 18.8292 15.5166 17.4876 17.4498C16.146 19.3834 14.4418 20.6834 12.375 21.3498C12.3418 21.3666 12.2168 21.3834 12 21.4002ZM12 20.1498C13.8168 19.5666 15.3126 18.4208 16.4874 16.7124C17.6626 15.004 18.2502 13.1082 18.2502 11.025V6.3498C18.2502 6.2998 18.2376 6.2582 18.2124 6.225C18.1876 6.1918 18.1502 6.1668 18.1002 6.15L12.15 3.9252C12.1 3.9084 12.05 3.9 12 3.9C11.95 3.9 11.9 3.9084 11.85 3.9252L5.8998 6.15C5.8498 6.1668 5.8124 6.1918 5.7876 6.225C5.7624 6.2582 5.7498 6.2998 5.7498 6.3498V11.025C5.7498 13.1082 6.3374 15.004 7.5126 16.7124C8.6874 18.4208 10.1832 19.5666 12 20.1498Z" fill="#808799"/>
</g>
</svg>
