<svg width="24" height="24" viewBox="0 0 24 24" fill="none" xmlns="http://www.w3.org/2000/svg">
<mask id="mask0_1_995" style="mask-type:alpha" maskUnits="userSpaceOnUse" x="0" y="0" width="24" height="24">
<rect width="24" height="24" fill="#D9D9D9"/>
</mask>
<g mask="url(#mask0_1_995)">
<path d="M4.7504 11.1252C4.4168 11.1252 4.125 11.0002 3.875 10.7502C3.625 10.5002 3.5 10.2084 3.5 9.87482V4.75022C3.5 4.41662 3.625 4.12482 3.875 3.87482C4.125 3.62482 4.4168 3.49982 4.7504 3.49982H9.875C10.2086 3.49982 10.5004 3.62482 10.7504 3.87482C11.0004 4.12482 11.1254 4.41662 11.1254 4.75022V9.87482C11.1254 10.2084 11.0004 10.5002 10.7504 10.7502C10.5004 11.0002 10.2086 11.1252 9.875 11.1252H4.7504ZM4.7504 20.5002C4.4168 20.5002 4.125 20.3752 3.875 20.1252C3.625 19.8752 3.5 19.5834 3.5 19.2498V14.1252C3.5 13.7916 3.625 13.4998 3.875 13.2498C4.125 12.9998 4.4168 12.8748 4.7504 12.8748H9.875C10.2086 12.8748 10.5004 12.9998 10.7504 13.2498C11.0004 13.4998 11.1254 13.7916 11.1254 14.1252V19.2498C11.1254 19.5834 11.0004 19.8752 10.7504 20.1252C10.5004 20.3752 10.2086 20.5002 9.875 20.5002H4.7504ZM14.1254 11.1252C13.7918 11.1252 13.5 11.0002 13.25 10.7502C13 10.5002 12.875 10.2084 12.875 9.87482V4.75022C12.875 4.41662 13 4.12482 13.25 3.87482C13.5 3.62482 13.7918 3.49982 14.1254 3.49982H19.25C19.5836 3.49982 19.8754 3.62482 20.1254 3.87482C20.3754 4.12482 20.5004 4.41662 20.5004 4.75022V9.87482C20.5004 10.2084 20.3754 10.5002 20.1254 10.7502C19.8754 11.0002 19.5836 11.1252 19.25 11.1252H14.1254ZM14.1254 20.5002C13.7918 20.5002 13.5 20.3752 13.25 20.1252C13 19.8752 12.875 19.5834 12.875 19.2498V14.1252C12.875 13.7916 13 13.4998 13.25 13.2498C13.5 12.9998 13.7918 12.8748 14.1254 12.8748H19.25C19.5836 12.8748 19.8754 12.9998 20.1254 13.2498C20.3754 13.4998 20.5004 13.7916 20.5004 14.1252V19.2498C20.5004 19.5834 20.3754 19.8752 20.1254 20.1252C19.8754 20.3752 19.5836 20.5002 19.25 20.5002H14.1254ZM4.7504 9.87482H9.875V4.75022H4.7504V9.87482ZM14.1254 9.87482H19.25V4.75022H14.1254V9.87482ZM14.1254 19.2498H19.25V14.1252H14.1254V19.2498ZM4.7504 19.2498H9.875V14.1252H4.7504V19.2498Z" fill="#808799"/>
</g>
</svg>
