<svg width="24" height="24" viewBox="0 0 24 24" fill="none" xmlns="http://www.w3.org/2000/svg">
<mask id="mask0_1_953" style="mask-type:alpha" maskUnits="userSpaceOnUse" x="0" y="0" width="24" height="24">
<rect width="24" height="24" fill="#D9D9D9"/>
</mask>
<g mask="url(#mask0_1_953)">
<path d="M12.0748 17.5248C12.308 17.5248 12.508 17.4416 12.6748 17.2752C12.8416 17.1084 12.925 16.9 12.925 16.65C12.925 16.4168 12.8416 16.2126 12.6748 16.0374C12.508 15.8626 12.308 15.7752 12.0748 15.7752C11.8248 15.7752 11.6122 15.8626 11.437 16.0374C11.2622 16.2126 11.1748 16.4168 11.1748 16.65C11.1748 16.9 11.2622 17.1084 11.437 17.2752C11.6122 17.4416 11.8248 17.5248 12.0748 17.5248ZM12.0748 7.62484C12.6248 7.62484 13.0748 7.77484 13.4248 8.07484C13.7748 8.37484 13.9498 8.77484 13.9498 9.27484C13.9498 9.59164 13.854 9.90424 13.6624 10.2126C13.4708 10.521 13.1832 10.8502 12.7996 11.2002C12.3496 11.6002 12.008 11.9918 11.7748 12.375C11.5416 12.7582 11.4166 13.1416 11.3998 13.5252C11.3998 13.6752 11.4582 13.8002 11.575 13.9002C11.6914 14.0002 11.8246 14.0502 11.9746 14.0502C12.1414 14.0502 12.2832 13.996 12.4 13.8876C12.5164 13.7792 12.5914 13.6416 12.625 13.4748C12.675 13.1584 12.7832 12.8792 12.9496 12.6372C13.1164 12.3956 13.3748 12.1082 13.7248 11.775C14.2248 11.325 14.579 10.9042 14.7874 10.5126C14.9958 10.121 15.1 9.69184 15.1 9.22504C15.1 8.40824 14.825 7.74984 14.275 7.24984C13.725 6.74984 13.0082 6.49984 12.1246 6.49984C11.5246 6.49984 10.9706 6.62484 10.4626 6.87484C9.9542 7.12484 9.5416 7.48324 9.2248 7.95004C9.1248 8.10004 9.0874 8.25424 9.1126 8.41264C9.1374 8.57104 9.2082 8.69184 9.325 8.77504C9.4914 8.87504 9.6622 8.90424 9.8374 8.86264C10.0122 8.82104 10.158 8.72524 10.2748 8.57524C10.4916 8.29164 10.7416 8.06244 11.0248 7.88764C11.308 7.71244 11.658 7.62484 12.0748 7.62484ZM11.9998 21.4998C10.683 21.4998 9.4454 21.254 8.287 20.7624C7.129 20.2708 6.1208 19.6 5.2624 18.75C4.404 17.9 3.729 16.8958 3.2374 15.7374C2.7458 14.579 2.5 13.3332 2.5 12C2.5 10.6668 2.7458 9.42524 3.2374 8.27524C3.729 7.12524 4.404 6.12104 5.2624 5.26264C6.1208 4.40424 7.129 3.72924 8.287 3.23764C9.4454 2.74604 10.683 2.50024 11.9998 2.50024C13.3166 2.50024 14.5542 2.74604 15.7126 3.23764C16.8706 3.72924 17.8788 4.40424 18.7372 5.26264C19.5956 6.12104 20.2706 7.12524 20.7622 8.27524C21.2538 9.42524 21.4996 10.6668 21.4996 12C21.4996 13.3332 21.2538 14.579 20.7622 15.7374C20.2706 16.8958 19.5956 17.9 18.7372 18.75C17.8788 19.6 16.8706 20.2708 15.7126 20.7624C14.5542 21.254 13.3166 21.4998 11.9998 21.4998ZM11.9998 20.25C14.283 20.25 16.2288 19.4416 17.8372 17.8248C19.4456 16.2084 20.2498 14.2668 20.2498 12C20.2498 9.73324 19.4456 7.79164 17.8372 6.17524C16.2288 4.55844 14.283 3.75004 11.9998 3.75004C9.7166 3.75004 7.7708 4.55844 6.1624 6.17524C4.554 7.79164 3.7498 9.73324 3.7498 12C3.7498 14.2668 4.554 16.2084 6.1624 17.8248C7.7708 19.4416 9.7166 20.25 11.9998 20.25Z" fill="#808799"/>
</g>
</svg>
