<svg width="24" height="24" viewBox="0 0 24 24" fill="none" xmlns="http://www.w3.org/2000/svg">
<mask id="mask0_1_1001" style="mask-type:alpha" maskUnits="userSpaceOnUse" x="0" y="0" width="24" height="24">
<rect width="24" height="24" fill="#D9D9D9"/>
</mask>
<g mask="url(#mask0_1_1001)">
<path d="M5.7498 19.2498H9.4752V13.1748H14.5248V19.2498H18.2502V9.87477L12 5.17497L5.7498 9.87477V19.2498ZM5.7498 20.5002C5.4166 20.5002 5.125 20.3752 4.875 20.1252C4.625 19.8752 4.5 19.5834 4.5 19.2498V9.87477C4.5 9.67477 4.5416 9.48737 4.6248 9.31257C4.7084 9.13737 4.8334 8.99157 4.9998 8.87517L11.25 4.17477C11.3668 4.09157 11.4876 4.02917 11.6124 3.98757C11.7376 3.94597 11.8668 3.92517 12 3.92517C12.1332 3.92517 12.2624 3.94597 12.3876 3.98757C12.5124 4.02917 12.6332 4.09157 12.75 4.17477L19.0002 8.87517C19.1666 8.99157 19.2916 9.13737 19.3752 9.31257C19.4584 9.48737 19.5 9.67477 19.5 9.87477V19.2498C19.5 19.5834 19.375 19.8752 19.125 20.1252C18.875 20.3752 18.5834 20.5002 18.2502 20.5002H13.275V14.4252H10.725V20.5002H5.7498Z" fill="#808799"/>
</g>
</svg>
