<svg width="24" height="24" viewBox="0 0 24 24" fill="none" xmlns="http://www.w3.org/2000/svg">
<mask id="mask0_1_919" style="mask-type:alpha" maskUnits="userSpaceOnUse" x="0" y="0" width="24" height="24">
<rect width="24" height="24" fill="#D9D9D9"/>
</mask>
<g mask="url(#mask0_1_919)">
<path d="M12.0496 16.7502C12.2164 16.7502 12.3622 16.6918 12.487 16.575C12.6122 16.4582 12.6748 16.3082 12.6748 16.125V11.5998C12.6748 11.4334 12.6122 11.2918 12.487 11.175C12.3622 11.0582 12.2082 10.9998 12.025 10.9998C11.8582 10.9998 11.7122 11.0582 11.587 11.175C11.4622 11.2918 11.3998 11.4418 11.3998 11.625V16.1502C11.3998 16.3166 11.4622 16.4582 11.587 16.575C11.7122 16.6918 11.8664 16.7502 12.0496 16.7502ZM11.9998 9.37504C12.1998 9.37504 12.3706 9.30844 12.5122 9.17524C12.6538 9.04164 12.7246 8.86664 12.7246 8.65024C12.7246 8.45024 12.6538 8.27944 12.5122 8.13784C12.3706 7.99584 12.1998 7.92484 11.9998 7.92484C11.7998 7.92484 11.629 7.99584 11.4874 8.13784C11.3458 8.27944 11.275 8.45024 11.275 8.65024C11.275 8.86664 11.3458 9.04164 11.4874 9.17524C11.629 9.30844 11.7998 9.37504 11.9998 9.37504ZM11.9998 21.4998C10.6666 21.4998 9.4208 21.254 8.2624 20.7624C7.104 20.2708 6.0998 19.6 5.2498 18.75C4.3998 17.9 3.729 16.8958 3.2374 15.7374C2.7458 14.579 2.5 13.3332 2.5 12C2.5 10.6668 2.7458 9.42524 3.2374 8.27524C3.729 7.12524 4.3998 6.12104 5.2498 5.26264C6.0998 4.40424 7.104 3.72924 8.2624 3.23764C9.4208 2.74604 10.6666 2.50024 11.9998 2.50024C13.333 2.50024 14.5746 2.74604 15.7246 3.23764C16.8746 3.72924 17.8788 4.40424 18.7372 5.26264C19.5956 6.12104 20.2706 7.12524 20.7622 8.27524C21.2538 9.42524 21.4996 10.6668 21.4996 12C21.4996 13.3332 21.2538 14.579 20.7622 15.7374C20.2706 16.8958 19.5956 17.9 18.7372 18.75C17.8788 19.6 16.8746 20.2708 15.7246 20.7624C14.5746 21.254 13.333 21.4998 11.9998 21.4998ZM11.9998 20.25C14.2666 20.25 16.2082 19.4416 17.8246 17.8248C19.4414 16.2084 20.2498 14.2668 20.2498 12C20.2498 9.73324 19.4414 7.79164 17.8246 6.17524C16.2082 4.55844 14.2666 3.75004 11.9998 3.75004C9.733 3.75004 7.7914 4.55844 6.175 6.17524C4.5582 7.79164 3.7498 9.73324 3.7498 12C3.7498 14.2668 4.5582 16.2084 6.175 17.8248C7.7914 19.4416 9.733 20.25 11.9998 20.25Z" fill="#808799"/>
</g>
</svg>
