<svg width="24" height="24" viewBox="0 0 24 24" fill="none" xmlns="http://www.w3.org/2000/svg">
<mask id="mask0_1_950" style="mask-type:alpha" maskUnits="userSpaceOnUse" x="0" y="0" width="24" height="24">
<rect width="24" height="24" fill="#D9D9D9"/>
</mask>
<g mask="url(#mask0_1_950)">
<path d="M4.4998 21.75C4.1666 21.75 3.875 21.625 3.625 21.375C3.375 21.125 3.25 20.8334 3.25 20.5002V16.6248C3.25 16.2916 3.375 16 3.625 15.75C3.875 15.5 4.1666 15.375 4.4998 15.375H6.25V12.6252C6.25 12.2916 6.375 11.9998 6.625 11.7498C6.875 11.4998 7.1666 11.3748 7.4998 11.3748H11.3746V8.625H9.625C9.2914 8.625 8.9996 8.5 8.7496 8.25C8.4996 8 8.3746 7.7084 8.3746 7.3752V3.4998C8.3746 3.1666 8.4996 2.875 8.7496 2.625C8.9996 2.375 9.2914 2.25 9.625 2.25H14.3746C14.7082 2.25 15 2.375 15.25 2.625C15.5 2.875 15.625 3.1666 15.625 3.4998V7.3752C15.625 7.7084 15.5 8 15.25 8.25C15 8.5 14.7082 8.625 14.3746 8.625H12.625V11.3748H16.4998C16.833 11.3748 17.1246 11.4998 17.3746 11.7498C17.6246 11.9998 17.7496 12.2916 17.7496 12.6252V15.375H19.4998C19.833 15.375 20.1246 15.5 20.3746 15.75C20.6246 16 20.7496 16.2916 20.7496 16.6248V20.5002C20.7496 20.8334 20.6246 21.125 20.3746 21.375C20.1246 21.625 19.833 21.75 19.4998 21.75H14.7496C14.3996 21.75 14.1038 21.625 13.8622 21.375C13.6206 21.125 13.4998 20.8334 13.4998 20.5002V16.6248C13.4998 16.2916 13.6206 16 13.8622 15.75C14.1038 15.5 14.3996 15.375 14.7496 15.375H16.4998V12.6252H7.4998V15.375H9.25C9.6 15.375 9.8958 15.5 10.1374 15.75C10.379 16 10.4998 16.2916 10.4998 16.6248V20.5002C10.4998 20.8334 10.379 21.125 10.1374 21.375C9.8958 21.625 9.6 21.75 9.25 21.75H4.4998ZM9.625 7.3752H14.3746V3.4998H9.625V7.3752ZM4.4998 20.5002H9.25V16.6248H4.4998V20.5002ZM14.7496 20.5002H19.4998V16.6248H14.7496V20.5002Z" fill="#808799"/>
</g>
</svg>
