<svg width="24" height="24" viewBox="0 0 24 24" fill="none" xmlns="http://www.w3.org/2000/svg">
<mask id="mask0_1_931" style="mask-type:alpha" maskUnits="userSpaceOnUse" x="0" y="0" width="24" height="24">
<rect width="24" height="24" fill="#D9D9D9"/>
</mask>
<g mask="url(#mask0_1_931)">
<path d="M6.075 21.4998C5.625 21.4998 5.25 21.3498 4.95 21.0498C4.65 20.7498 4.5 20.3748 4.5 19.9248V10.1502C4.5 9.70016 4.65 9.32516 4.95 9.02516C5.25 8.72516 5.625 8.57516 6.075 8.57516H15.1248V6.37496C15.1248 5.50816 14.8208 4.77076 14.2128 4.16276C13.6044 3.55436 12.8668 3.25016 12 3.25016C11.2332 3.25016 10.5666 3.48756 10.0002 3.96236C9.4334 4.43756 9.0834 5.04176 8.9502 5.77496C8.9002 5.94176 8.8168 6.08336 8.7 6.19976C8.5832 6.31656 8.4416 6.37496 8.2752 6.37496C8.0916 6.37496 7.9374 6.31236 7.8126 6.18716C7.6874 6.06236 7.6416 5.90836 7.6752 5.72516C7.8252 4.65836 8.3044 3.77076 9.1128 3.06236C9.9208 2.35396 10.8832 1.99976 12 1.99976C13.2168 1.99976 14.2502 2.42476 15.1002 3.27476C15.9502 4.12476 16.3752 5.15816 16.3752 6.37496V8.57516H17.925C18.375 8.57516 18.75 8.72516 19.05 9.02516C19.35 9.32516 19.5 9.70016 19.5 10.1502V19.9248C19.5 20.3748 19.35 20.7498 19.05 21.0498C18.75 21.3498 18.375 21.4998 17.925 21.4998H6.075ZM6.075 20.25H17.925C18.025 20.25 18.1042 20.2208 18.1626 20.1624C18.221 20.104 18.2502 20.0248 18.2502 19.9248V10.1502C18.2502 10.0502 18.221 9.97096 18.1626 9.91256C18.1042 9.85416 18.025 9.82496 17.925 9.82496H6.075C5.975 9.82496 5.8958 9.85416 5.8374 9.91256C5.779 9.97096 5.7498 10.0502 5.7498 10.1502V19.9248C5.7498 20.0248 5.779 20.104 5.8374 20.1624C5.8958 20.2208 5.975 20.25 6.075 20.25ZM12 16.7502C12.4668 16.7502 12.871 16.5834 13.2126 16.2498C13.5542 15.9166 13.725 15.5166 13.725 15.0498C13.725 14.5998 13.5542 14.1998 13.2126 13.8498C12.871 13.4998 12.4668 13.3248 12 13.3248C11.5332 13.3248 11.129 13.4998 10.7874 13.8498C10.4458 14.1998 10.275 14.6082 10.275 15.075C10.275 15.525 10.4458 15.9166 10.7874 16.2498C11.129 16.5834 11.5332 16.7502 12 16.7502Z" fill="#808799"/>
</g>
</svg>
