<svg width="24" height="24" viewBox="0 0 24 24" fill="none" xmlns="http://www.w3.org/2000/svg">
<mask id="mask0_1_998" style="mask-type:alpha" maskUnits="userSpaceOnUse" x="0" y="0" width="24" height="24">
<rect width="24" height="24" fill="#D9D9D9"/>
</mask>
<g mask="url(#mask0_1_998)">
<path d="M5.8249 13.0997C5.5249 13.0997 5.2667 12.9915 5.0503 12.7751C4.8335 12.5583 4.7251 12.2999 4.7251 11.9999C4.7251 11.6999 4.8335 11.4415 5.0503 11.2247C5.2667 11.0083 5.5333 10.9001 5.8501 10.9001C6.1501 10.9001 6.4085 11.0083 6.6253 11.2247C6.8417 11.4415 6.9499 11.6999 6.9499 11.9999C6.9499 12.2999 6.8417 12.5583 6.6253 12.7751C6.4085 12.9915 6.1417 13.0997 5.8249 13.0997ZM12.0001 13.0997C11.7001 13.0997 11.4417 12.9915 11.2249 12.7751C11.0085 12.5583 10.9003 12.2999 10.9003 11.9999C10.9003 11.6999 11.0085 11.4415 11.2249 11.2247C11.4417 11.0083 11.7001 10.9001 12.0001 10.9001C12.3001 10.9001 12.5585 11.0083 12.7753 11.2247C12.9917 11.4415 13.0999 11.6999 13.0999 11.9999C13.0999 12.2999 12.9917 12.5583 12.7753 12.7751C12.5585 12.9915 12.3001 13.0997 12.0001 13.0997ZM18.1501 13.0997C17.8501 13.0997 17.5917 12.9915 17.3749 12.7751C17.1585 12.5583 17.0503 12.2999 17.0503 11.9999C17.0503 11.6999 17.1585 11.4415 17.3749 11.2247C17.5917 11.0083 17.8585 10.9001 18.1753 10.9001C18.4753 10.9001 18.7335 11.0083 18.9499 11.2247C19.1667 11.4415 19.2751 11.6999 19.2751 11.9999C19.2751 12.2999 19.1667 12.5583 18.9499 12.7751C18.7335 12.9915 18.4669 13.0997 18.1501 13.0997Z" fill="#808799"/>
</g>
</svg>
