<svg width="24" height="24" viewBox="0 0 24 24" fill="none" xmlns="http://www.w3.org/2000/svg">
<mask id="mask0_1_925" style="mask-type:alpha" maskUnits="userSpaceOnUse" x="0" y="0" width="24" height="24">
<rect width="24" height="24" fill="#D9D9D9"/>
</mask>
<g mask="url(#mask0_1_925)">
<path d="M7.05019 18.8249L4.27519 18.2501C4.07519 18.2165 3.91679 18.1165 3.79999 17.9501C3.68359 17.7833 3.63359 17.5999 3.64999 17.3999L3.94999 14.6249L2.12539 12.5249C1.97539 12.3749 1.90039 12.1999 1.90039 11.9999C1.90039 11.7999 1.97539 11.6249 2.12539 11.4749L3.94999 9.3749L3.64999 6.5999C3.63359 6.3999 3.68359 6.2165 3.79999 6.0497C3.91679 5.8833 4.07519 5.7833 4.27519 5.7497L7.05019 5.1749L8.47519 2.7497C8.59199 2.5665 8.74199 2.4457 8.92519 2.3873C9.10839 2.3289 9.29179 2.3331 9.47539 2.3999L12.0002 3.5249L14.525 2.3999C14.7086 2.3331 14.8962 2.3289 15.0878 2.3873C15.2794 2.4457 15.4252 2.5583 15.5252 2.7251L16.9754 5.1749L19.7252 5.7497C19.9252 5.7833 20.0836 5.8833 20.2004 6.0497C20.3168 6.2165 20.3668 6.3999 20.3504 6.5999L20.0504 9.3749L21.875 11.4749C22.025 11.6249 22.1 11.7999 22.1 11.9999C22.1 12.1999 22.025 12.3749 21.875 12.5249L20.0504 14.6249L20.3504 17.3999C20.3668 17.5999 20.3168 17.7833 20.2004 17.9501C20.0836 18.1165 19.9252 18.2165 19.7252 18.2501L16.9754 18.8249L15.5252 21.2747C15.4252 21.4415 15.2794 21.5541 15.0878 21.6125C14.8962 21.6709 14.7086 21.6667 14.525 21.5999L12.0002 20.4749L9.47539 21.5999C9.29179 21.6667 9.10839 21.6709 8.92519 21.6125C8.74199 21.5541 8.59199 21.4333 8.47519 21.2501L7.05019 18.8249ZM10.4 14.5499C10.55 14.6999 10.7292 14.7749 10.9376 14.7749C11.146 14.7749 11.3336 14.6999 11.5004 14.5499L15.8252 10.2251C15.942 10.1083 15.9962 9.9665 15.9878 9.7997C15.9794 9.6333 15.9168 9.4833 15.8 9.3497C15.6668 9.2165 15.5126 9.1541 15.3374 9.1625C15.1626 9.1709 15.0086 9.2417 14.8754 9.3749L10.9502 13.3001L9.12499 11.4497C8.99179 11.3165 8.83779 11.2541 8.66299 11.2625C8.48779 11.2709 8.34179 11.3417 8.22499 11.4749C8.09179 11.6081 8.02099 11.7623 8.01259 11.9375C8.00419 12.1123 8.07499 12.2581 8.22499 12.3749L10.4 14.5499ZM9.40039 20.2247L12.0002 19.1501L14.6504 20.2247L16.2002 17.7749L19.0502 17.0999L18.7754 14.2001L20.7002 11.9999L18.7754 9.7751L19.0502 6.8747L16.2002 6.2249L14.6252 3.7751L12.0002 4.8497L9.34999 3.7751L7.80019 6.2249L4.95019 6.8747L5.22499 9.7751L3.30019 11.9999L5.22499 14.2001L4.95019 17.1251L7.80019 17.7749L9.40039 20.2247Z" fill="#808799"/>
</g>
</svg>
