<svg width="24" height="24" viewBox="0 0 24 24" fill="none" xmlns="http://www.w3.org/2000/svg">
<mask id="mask0_1_830" style="mask-type:alpha" maskUnits="userSpaceOnUse" x="0" y="0" width="24" height="24">
<rect width="24" height="24" fill="#D9D9D9"/>
</mask>
<g mask="url(#mask0_1_830)">
<path d="M12 11.6748C11.0332 11.6748 10.229 11.354 9.5874 10.7124C8.9458 10.0708 8.625 9.2666 8.625 8.2998C8.625 7.3334 8.9458 6.5294 9.5874 5.8878C10.229 5.2458 11.0332 4.9248 12 4.9248C12.9668 4.9248 13.771 5.2458 14.4126 5.8878C15.0542 6.5294 15.375 7.3334 15.375 8.2998C15.375 9.2666 15.0542 10.0708 14.4126 10.7124C13.771 11.354 12.9668 11.6748 12 11.6748ZM5.775 19.3002C5.425 19.3002 5.125 19.1752 4.875 18.9252C4.625 18.6752 4.5 18.3752 4.5 18.0252V17.2998C4.5 16.7834 4.6376 16.321 4.9128 15.9126C5.1876 15.5042 5.5584 15.1916 6.0252 14.9748C7.0416 14.5084 8.0456 14.1544 9.0372 13.9128C10.0292 13.6708 11.0168 13.5498 12 13.5498C12.9832 13.5498 13.9666 13.6708 14.9502 13.9128C15.9334 14.1544 16.9416 14.5084 17.9748 14.9748C18.4416 15.1916 18.8124 15.5042 19.0872 15.9126C19.3624 16.321 19.5 16.7834 19.5 17.2998V18.0252C19.5 18.3752 19.375 18.6752 19.125 18.9252C18.875 19.1752 18.575 19.3002 18.225 19.3002H5.775ZM5.7498 18.0498H18.2502V17.2998C18.2502 17.0666 18.1752 16.8416 18.0252 16.6248C17.8752 16.4084 17.6752 16.2334 17.4252 16.0998C16.4916 15.6334 15.5832 15.3002 14.7 15.1002C13.8168 14.9002 12.9168 14.8002 12 14.8002C11.0832 14.8002 10.179 14.9002 9.2874 15.1002C8.3958 15.3002 7.4834 15.6334 6.5502 16.0998C6.3166 16.2334 6.1248 16.4084 5.9748 16.6248C5.8248 16.8416 5.7498 17.0666 5.7498 17.2998V18.0498ZM12 10.425C12.6 10.425 13.1042 10.2208 13.5126 9.8124C13.921 9.404 14.1252 8.8998 14.1252 8.2998C14.1252 7.6998 13.921 7.1958 13.5126 6.7878C13.1042 6.3794 12.6 6.1752 12 6.1752C11.4 6.1752 10.8958 6.3794 10.4874 6.7878C10.079 7.1958 9.8748 7.6998 9.8748 8.2998C9.8748 8.8998 10.079 9.404 10.4874 9.8124C10.8958 10.2208 11.4 10.425 12 10.425Z" fill="#808799"/>
</g>
</svg>
