<svg width="24" height="24" viewBox="0 0 24 24" fill="none" xmlns="http://www.w3.org/2000/svg">
<mask id="mask0_1_808" style="mask-type:alpha" maskUnits="userSpaceOnUse" x="0" y="0" width="24" height="24">
<rect width="24" height="24" fill="#D9D9D9"/>
</mask>
<g mask="url(#mask0_1_808)">
<path d="M3.0245 6.60002C2.8413 6.60002 2.6913 6.53742 2.5745 6.41222C2.4581 6.28742 2.3999 6.14162 2.3999 5.97482V3.17462C2.3999 2.95822 2.4749 2.77502 2.6249 2.62502C2.7749 2.47502 2.9581 2.40002 3.1745 2.40002H5.9747C6.1415 2.40002 6.2873 2.46242 6.4121 2.58722C6.5373 2.71242 6.5999 2.85822 6.5999 3.02462C6.5999 3.20822 6.5373 3.35822 6.4121 3.47462C6.2873 3.59142 6.1415 3.64982 5.9747 3.64982H3.6497V5.97482C3.6497 6.14162 3.5913 6.28742 3.4745 6.41222C3.3581 6.53742 3.2081 6.60002 3.0245 6.60002ZM3.1745 21.3996C2.9581 21.3996 2.7749 21.3246 2.6249 21.1746C2.4749 21.0246 2.3999 20.8414 2.3999 20.625V17.8248C2.3999 17.658 2.4623 17.5122 2.5871 17.3874C2.7123 17.2622 2.8581 17.1996 3.0245 17.1996C3.2081 17.1996 3.3581 17.2622 3.4745 17.3874C3.5913 17.5122 3.6497 17.658 3.6497 17.8248V20.1498H5.9747C6.1415 20.1498 6.2873 20.2082 6.4121 20.325C6.5373 20.4414 6.5999 20.5914 6.5999 20.775C6.5999 20.9582 6.5373 21.1082 6.4121 21.225C6.2873 21.3414 6.1415 21.3996 5.9747 21.3996H3.1745ZM17.8247 21.3996C17.6579 21.3996 17.5121 21.3372 17.3873 21.2124C17.2621 21.0872 17.1995 20.9414 17.1995 20.775C17.1995 20.5914 17.2621 20.4414 17.3873 20.325C17.5121 20.2082 17.6579 20.1498 17.8247 20.1498H20.1497V17.8248C20.1497 17.658 20.2081 17.5122 20.3249 17.3874C20.4413 17.2622 20.5913 17.1996 20.7749 17.1996C20.9581 17.1996 21.1081 17.2622 21.2249 17.3874C21.3413 17.5122 21.3995 17.658 21.3995 17.8248V20.625C21.3995 20.8414 21.3245 21.0246 21.1745 21.1746C21.0245 21.3246 20.8413 21.3996 20.6249 21.3996H17.8247ZM20.7749 6.60002C20.5913 6.60002 20.4413 6.53742 20.3249 6.41222C20.2081 6.28742 20.1497 6.14162 20.1497 5.97482V3.64982H17.8247C17.6579 3.64982 17.5121 3.59142 17.3873 3.47462C17.2621 3.35822 17.1995 3.20822 17.1995 3.02462C17.1995 2.84142 17.2621 2.69142 17.3873 2.57462C17.5121 2.45822 17.6579 2.40002 17.8247 2.40002H20.6249C20.8413 2.40002 21.0245 2.47502 21.1745 2.62502C21.3245 2.77502 21.3995 2.95822 21.3995 3.17462V5.97482C21.3995 6.14162 21.3371 6.28742 21.2123 6.41222C21.0871 6.53742 20.9413 6.60002 20.7749 6.60002ZM17.2247 17.2248H18.5999V18.6246H17.2247V17.2248ZM17.2247 14.4498H18.5999V15.8496H17.2247V14.4498ZM15.8249 15.8496H17.2247V17.2248H15.8249V15.8496ZM14.4245 17.2248H15.8249V18.6246H14.4245V17.2248ZM13.0499 15.8496H14.4245V17.2248H13.0499V15.8496ZM15.8249 13.05H17.2247V14.4498H15.8249V13.05ZM14.4245 14.4498H15.8249V15.8496H14.4245V14.4498ZM13.0499 13.05H14.4245V14.4498H13.0499V13.05ZM18.5999 5.17502V10.7496H13.0499V5.17502H18.5999ZM10.7495 13.05V18.6246H5.1749V13.05H10.7495ZM10.7495 5.17502V10.7496H5.1749V5.17502H10.7495ZM9.6749 17.55V14.1246H6.2495V17.55H9.6749ZM9.6749 9.67502V6.24962H6.2495V9.67502H9.6749ZM17.5499 9.67502V6.24962H14.1245V9.67502H17.5499Z" fill="#808799"/>
</g>
</svg>
