<svg width="24" height="24" viewBox="0 0 24 24" fill="none" xmlns="http://www.w3.org/2000/svg">
<mask id="mask0_1_944" style="mask-type:alpha" maskUnits="userSpaceOnUse" x="0" y="0" width="24" height="24">
<rect width="24" height="24" fill="#D9D9D9"/>
</mask>
<g mask="url(#mask0_1_944)">
<path d="M16 10.875C16.25 10.875 16.4582 10.7916 16.6246 10.6248C16.7914 10.4584 16.8748 10.2502 16.8748 10.0002C16.8748 9.75024 16.7914 9.54184 16.6246 9.37504C16.4582 9.20824 16.25 9.12484 16 9.12484C15.75 9.12484 15.5416 9.20824 15.3748 9.37504C15.208 9.54184 15.1246 9.75024 15.1246 10.0002C15.1246 10.2502 15.208 10.4584 15.3748 10.6248C15.5416 10.7916 15.75 10.875 16 10.875ZM8.6248 8.50024H12.3748C12.558 8.50024 12.708 8.44184 12.8248 8.32504C12.9416 8.20824 13 8.05824 13 7.87504C13 7.69184 12.9416 7.54184 12.8248 7.42504C12.708 7.30824 12.558 7.24984 12.3748 7.24984H8.6248C8.4416 7.24984 8.2916 7.30824 8.1748 7.42504C8.058 7.54184 7.9996 7.69184 7.9996 7.87504C7.9996 8.05824 8.058 8.20824 8.1748 8.32504C8.2916 8.44184 8.4416 8.50024 8.6248 8.50024ZM6.1246 20.5002C5.7746 20.5002 5.4454 20.3834 5.137 20.1498C4.829 19.9166 4.6332 19.6334 4.5496 19.3002C4.1332 17.8502 3.7916 16.621 3.5248 15.6126C3.258 14.6042 3.0496 13.7376 2.8996 13.0128C2.7496 12.2876 2.6454 11.65 2.587 11.1C2.529 10.55 2.5 10.0166 2.5 9.49984C2.5 8.09984 2.9832 6.91664 3.9496 5.95024C4.9164 4.98344 6.0998 4.50004 7.4998 4.50004H12.7498C13.1998 3.90004 13.7498 3.41664 14.3998 3.04984C15.0498 2.68344 15.7498 2.50024 16.4998 2.50024C16.783 2.50024 17.0206 2.59604 17.2126 2.78764C17.4042 2.97924 17.5 3.21664 17.5 3.49984C17.5 3.56664 17.4916 3.63344 17.4748 3.70024C17.458 3.76664 17.4414 3.83324 17.425 3.90004C17.3414 4.08324 17.2664 4.29164 17.2 4.52524C17.1332 4.75844 17.0664 5.05004 16.9996 5.40004L19.6246 7.99984H20.725C20.9414 7.99984 21.1246 8.07484 21.2746 8.22484C21.4246 8.37484 21.4996 8.55824 21.4996 8.77504V13.5252C21.4996 13.7084 21.4538 13.8666 21.3622 13.9998C21.2706 14.1334 21.1332 14.2334 20.95 14.2998L18.775 15L17.4748 19.3752C17.358 19.7252 17.1622 20.0002 16.8874 20.2002C16.6122 20.4002 16.2996 20.5002 15.9496 20.5002H14.0746C13.6414 20.5002 13.2706 20.346 12.9622 20.0376C12.6538 19.7292 12.4996 19.3584 12.4996 18.9252V18.4998H9.4996V18.9252C9.4996 19.3584 9.3454 19.7292 9.037 20.0376C8.729 20.346 8.3582 20.5002 7.9246 20.5002H6.1246ZM6.0748 19.2498H7.9246C8.0246 19.2498 8.1038 19.2208 8.1622 19.1628C8.2206 19.1044 8.2498 19.0252 8.2498 18.9252V17.25H13.75V18.9252C13.75 19.0252 13.779 19.1044 13.837 19.1628C13.8954 19.2208 13.9746 19.2498 14.0746 19.2498H15.9496C16.0164 19.2498 16.079 19.229 16.1374 19.1874C16.1958 19.1458 16.2332 19.0916 16.2496 19.0248L17.7496 14.0502L20.2498 13.2V9.25024H19.0996L15.7498 5.89984C15.7498 5.61664 15.779 5.28764 15.8374 4.91284C15.8958 4.53764 15.9832 4.15844 16.0996 3.77524C15.5332 3.92524 15.0166 4.17944 14.5498 4.53784C14.083 4.89584 13.7414 5.29984 13.525 5.74984H7.4998C6.4666 5.74984 5.5832 6.11664 4.8496 6.85024C4.1164 7.58344 3.7498 8.46664 3.7498 9.49984C3.7498 10.1834 3.9248 11.3502 4.2748 13.0002C4.6248 14.6502 5.1164 16.6502 5.7496 19.0002C5.7664 19.0666 5.8082 19.1248 5.875 19.1748C5.9414 19.2248 6.008 19.2498 6.0748 19.2498Z" fill="#808799"/>
</g>
</svg>
