<svg width="91" height="87" viewBox="0 0 91 87" fill="none" xmlns="http://www.w3.org/2000/svg">
<g opacity="0.56" filter="url(#filter0_d_1584_1411)">
<path d="M66.7067 54.4609L59.6202 62.1088C59.4661 62.2749 59.2797 62.4074 59.0726 62.4979C58.8655 62.5885 58.642 62.6351 58.4163 62.635H24.8227C24.6624 62.635 24.5056 62.5878 24.3716 62.4994C24.2375 62.411 24.1321 62.285 24.0682 62.1371C24.0043 61.9892 23.9847 61.8257 24.0119 61.6667C24.0391 61.5077 24.1118 61.3602 24.2212 61.2423L31.3131 53.5944C31.4667 53.4287 31.6525 53.2965 31.8589 53.206C32.0654 53.1155 32.2881 53.0686 32.5133 53.0682H66.105C66.2653 53.0682 66.4221 53.1154 66.5563 53.2038C66.6901 53.2923 66.7955 53.4182 66.8597 53.5661C66.9235 53.7141 66.943 53.8775 66.9158 54.0365C66.8886 54.1955 66.816 54.343 66.7067 54.4609ZM59.6202 39.0603C59.4661 38.8941 59.2797 38.7617 59.0726 38.6712C58.8655 38.5807 58.642 38.534 58.4163 38.5341H24.8227C24.6624 38.5341 24.5056 38.5812 24.3716 38.6697C24.2375 38.7582 24.1321 38.8841 24.0682 39.032C24.0043 39.18 23.9847 39.3434 24.0119 39.5024C24.0391 39.6614 24.1118 39.8089 24.2212 39.9268L31.3131 47.5747C31.4667 47.7404 31.6525 47.8726 31.8589 47.9631C32.0654 48.0536 32.2881 48.1005 32.5133 48.1009H66.105C66.2653 48.1009 66.4221 48.0537 66.5563 47.9653C66.6901 47.8768 66.7955 47.7509 66.8597 47.603C66.9235 47.455 66.943 47.2915 66.9158 47.1326C66.8886 46.9736 66.816 46.8261 66.7067 46.7082L59.6202 39.0603ZM24.8227 33.5668H58.4163C58.642 33.5669 58.8655 33.5202 59.0726 33.4297C59.2797 33.3392 59.4661 33.2067 59.6202 33.0406L66.7067 25.3927C66.816 25.2748 66.8886 25.1273 66.9158 24.9683C66.943 24.8093 66.9235 24.6458 66.8597 24.4979C66.7955 24.35 66.6901 24.224 66.5563 24.1356C66.4221 24.0471 66.2653 24 66.105 24H32.5133C32.2881 24.0004 32.0654 24.0473 31.8589 24.1378C31.6525 24.2283 31.4667 24.3605 31.3131 24.5262L24.223 32.1741C24.1138 32.2919 24.0411 32.4392 24.0138 32.598C23.9866 32.7568 24.006 32.9202 24.0696 33.068C24.1333 33.2159 24.2385 33.3418 24.3722 33.4304C24.506 33.519 24.6626 33.5664 24.8227 33.5668Z" fill="white"/>
</g>
<defs>
<filter id="filter0_d_1584_1411" x="0" y="0" width="90.9277" height="86.635" filterUnits="userSpaceOnUse" color-interpolation-filters="sRGB">
<feFlood flood-opacity="0" result="BackgroundImageFix"/>
<feColorMatrix in="SourceAlpha" type="matrix" values="0 0 0 0 0 0 0 0 0 0 0 0 0 0 0 0 0 0 127 0" result="hardAlpha"/>
<feOffset/>
<feGaussianBlur stdDeviation="12"/>
<feComposite in2="hardAlpha" operator="out"/>
<feColorMatrix type="matrix" values="0 0 0 0 0 0 0 0 0 0 0 0 0 0 0 0 0 0 1 0"/>
<feBlend mode="normal" in2="BackgroundImageFix" result="effect1_dropShadow_1584_1411"/>
<feBlend mode="normal" in="SourceGraphic" in2="effect1_dropShadow_1584_1411" result="shape"/>
</filter>
</defs>
</svg>
