<svg width="24" height="24" viewBox="0 0 24 24" fill="none" xmlns="http://www.w3.org/2000/svg">
<mask id="mask0_1_978" style="mask-type:alpha" maskUnits="userSpaceOnUse" x="0" y="0" width="24" height="24">
<rect width="24" height="24" fill="#D9D9D9"/>
</mask>
<g mask="url(#mask0_1_978)">
<path d="M12 21.5C10.7 21.5 9.47067 21.25 8.312 20.75C7.154 20.25 6.14567 19.5707 5.287 18.712C4.429 17.854 3.75 16.846 3.25 15.688C2.75 14.5293 2.5 13.3 2.5 12C2.5 10.6833 2.75 9.45 3.25 8.3C3.75 7.15 4.429 6.14567 5.287 5.287C6.14567 4.429 7.154 3.75 8.312 3.25C9.47067 2.75 10.7 2.5 12 2.5C13.3167 2.5 14.55 2.75 15.7 3.25C16.85 3.75 17.854 4.429 18.712 5.287C19.5707 6.14567 20.25 7.15 20.75 8.3C21.25 9.45 21.5 10.6833 21.5 12C21.5 13.3 21.25 14.5293 20.75 15.688C20.25 16.846 19.5707 17.854 18.712 18.712C17.854 19.5707 16.85 20.25 15.7 20.75C14.55 21.25 13.3167 21.5 12 21.5ZM12 18.4C13.7833 18.4 15.296 17.779 16.538 16.537C17.7793 15.2957 18.4 13.7833 18.4 12C18.4 10.2167 17.7793 8.704 16.538 7.462C15.296 6.22067 13.7833 5.6 12 5.6C10.2167 5.6 8.70433 6.22067 7.463 7.462C6.221 8.704 5.6 10.2167 5.6 12C5.6 13.7833 6.221 15.2957 7.463 16.537C8.70433 17.779 10.2167 18.4 12 18.4Z" fill="#808799"/>
</g>
</svg>
