<svg width="24" height="24" viewBox="0 0 24 24" fill="none" xmlns="http://www.w3.org/2000/svg">
<mask id="mask0_1_937" style="mask-type:alpha" maskUnits="userSpaceOnUse" x="0" y="0" width="24" height="24">
<rect width="24" height="24" fill="#D9D9D9"/>
</mask>
<g mask="url(#mask0_1_937)">
<path d="M7.0002 17.5002C5.4666 17.5002 4.1666 16.9668 3.1002 15.9C2.0334 14.8332 1.5 13.5332 1.5 12C1.5 10.4668 2.0334 9.16676 3.1002 8.09996C4.1666 7.03316 5.4666 6.49976 7.0002 6.49976H16.9998C18.5334 6.49976 19.8334 7.03316 20.8998 8.09996C21.9666 9.16676 22.5 10.4668 22.5 12C22.5 13.5332 21.9666 14.8332 20.8998 15.9C19.8334 16.9668 18.5334 17.5002 16.9998 17.5002H7.0002ZM7.0002 16.2498H16.9998C18.1834 16.2498 19.1876 15.8374 20.0124 15.0126C20.8376 14.1874 21.2502 13.1832 21.2502 12C21.2502 10.8332 20.8376 9.83316 20.0124 8.99996C19.1876 8.16676 18.1834 7.75016 16.9998 7.75016H7.0002C5.8166 7.75016 4.8124 8.16256 3.9876 8.98736C3.1624 9.81256 2.7498 10.8168 2.7498 12C2.7498 13.1668 3.1624 14.1668 3.9876 15C4.8124 15.8332 5.8166 16.2498 7.0002 16.2498ZM7.0002 14.5248C7.7002 14.5248 8.2918 14.279 8.775 13.7874C9.2582 13.2958 9.4998 12.7 9.4998 12C9.4998 11.3 9.2582 10.7042 8.775 10.2126C8.2918 9.72096 7.7002 9.47516 7.0002 9.47516C6.3002 9.47516 5.7044 9.72096 5.2128 10.2126C4.7208 10.7042 4.4748 11.3 4.4748 12C4.4748 12.7 4.7208 13.2958 5.2128 13.7874C5.7044 14.279 6.3002 14.5248 7.0002 14.5248Z" fill="#808799"/>
</g>
</svg>
