<svg width="24" height="24" viewBox="0 0 24 24" fill="none" xmlns="http://www.w3.org/2000/svg">
<mask id="mask0_1_907" style="mask-type:alpha" maskUnits="userSpaceOnUse" x="0" y="0" width="24" height="24">
<rect width="24" height="24" fill="#D9D9D9"/>
</mask>
<g mask="url(#mask0_1_907)">
<path d="M13.2 21.225C12.85 21.225 12.5916 21.1084 12.4248 20.8752C12.2584 20.6416 12.2418 20.3582 12.375 20.025L15.7752 11.0502C15.8584 10.8002 16.025 10.5876 16.275 10.4124C16.525 10.2376 16.7834 10.1502 17.0502 10.1502C17.3166 10.1502 17.5748 10.2376 17.8248 10.4124C18.0748 10.5876 18.2498 10.8002 18.3498 11.0502L21.7752 19.9752C21.9084 20.3252 21.8916 20.621 21.7248 20.8626C21.5584 21.1042 21.2834 21.225 20.8998 21.225C20.7334 21.225 20.5752 21.1708 20.4252 21.0624C20.2752 20.954 20.1668 20.8166 20.1 20.6502L19.3248 18.375H14.8752L14.025 20.6502C13.975 20.8166 13.8708 20.954 13.7124 21.0624C13.554 21.1708 13.3832 21.225 13.2 21.225ZM15.4002 16.7502H18.7002L17.0748 12.225H17.025L15.4002 16.7502ZM7.5498 8.80022C7.7998 9.21662 8.0624 9.61242 8.3376 9.98762C8.6124 10.3624 8.9248 10.7582 9.2748 11.175C9.9584 10.4418 10.5292 9.68762 10.9872 8.91242C11.4456 8.13762 11.8248 7.31682 12.1248 6.45002H2.775C2.525 6.45002 2.3124 6.36242 2.1372 6.18722C1.9624 6.01242 1.875 5.80002 1.875 5.55002C1.875 5.28322 1.9624 5.06242 2.1372 4.88762C2.3124 4.71242 2.5334 4.62482 2.8002 4.62482H8.325V3.70022C8.325 3.43342 8.4124 3.21242 8.5872 3.03722C8.7624 2.86242 8.9834 2.77502 9.2502 2.77502C9.5166 2.77502 9.7374 2.86242 9.9126 3.03722C10.0874 3.21242 10.1748 3.43342 10.1748 3.70022V4.62482H15.7002C15.9666 4.62482 16.1874 4.71242 16.3626 4.88762C16.5374 5.06242 16.6248 5.28322 16.6248 5.55002C16.6248 5.80002 16.5374 6.01242 16.3626 6.18722C16.1874 6.36242 15.9666 6.45002 15.7002 6.45002H13.9752C13.6416 7.53322 13.1998 8.58742 12.6498 9.61262C12.0998 10.6374 11.4166 11.6082 10.6002 12.525L12.825 14.8002L12.1248 16.6752L9.2502 13.8498L5.2752 17.8248C5.0916 17.9916 4.8748 18.075 4.6248 18.075C4.3748 18.075 4.1666 17.9834 4.0002 17.8002C3.8166 17.6334 3.7248 17.425 3.7248 17.175C3.7248 16.925 3.8166 16.7084 4.0002 16.5252L8.025 12.4752C7.625 12.0084 7.25 11.5334 6.9 11.0502C6.55 10.5666 6.2334 10.0666 5.9502 9.55022C5.7666 9.21662 5.754 8.92482 5.9124 8.67482C6.0708 8.42482 6.35 8.29982 6.75 8.29982C6.9 8.29982 7.05 8.34982 7.2 8.44982C7.35 8.54982 7.4666 8.66662 7.5498 8.80022Z" fill="#808799"/>
</g>
</svg>
