<svg width="24" height="24" viewBox="0 0 24 24" fill="none" xmlns="http://www.w3.org/2000/svg">
<mask id="mask0_1_910" style="mask-type:alpha" maskUnits="userSpaceOnUse" x="0" y="0" width="24" height="24">
<rect width="24" height="24" fill="#D9D9D9"/>
</mask>
<g mask="url(#mask0_1_910)">
<path d="M2.74996 17.2998C2.61676 17.1666 2.55436 17.0166 2.56276 16.8498C2.57116 16.6834 2.63356 16.5418 2.74996 16.425L8.74996 10.3752C8.83356 10.3084 8.92116 10.2542 9.01276 10.2126C9.10436 10.171 9.20016 10.1502 9.30016 10.1502C9.40016 10.1502 9.49596 10.171 9.58756 10.2126C9.67916 10.2542 9.76676 10.3084 9.85036 10.3752L13.4 13.9248L19.6004 7.75016H17C16.8168 7.75016 16.6626 7.69176 16.5374 7.57496C16.4126 7.45816 16.3502 7.30816 16.3502 7.12496C16.3502 6.94176 16.4126 6.79176 16.5374 6.67496C16.6626 6.55816 16.8168 6.49976 17 6.49976H20.9252C21.142 6.49976 21.3254 6.57476 21.4754 6.72476C21.6254 6.87476 21.7004 7.05816 21.7004 7.27496V11.2002C21.7004 11.3666 21.642 11.5124 21.5252 11.6376C21.4084 11.7624 21.2584 11.8248 21.0752 11.8248C20.9084 11.8248 20.7626 11.7624 20.6378 11.6376C20.5126 11.5124 20.45 11.3666 20.45 11.2002V8.65016L13.925 15.1998C13.8418 15.2834 13.7544 15.3418 13.6628 15.375C13.5712 15.4082 13.4754 15.4248 13.3754 15.4248C13.2754 15.4248 13.1794 15.4082 13.0874 15.375C12.9958 15.3418 12.9084 15.2834 12.8252 15.1998L9.30016 11.6502L3.62536 17.325C3.50856 17.4418 3.36676 17.496 3.19996 17.4876C3.03356 17.4792 2.88356 17.4166 2.74996 17.2998Z" fill="#808799"/>
</g>
</svg>
