<svg width="24" height="24" viewBox="0 0 24 24" fill="none" xmlns="http://www.w3.org/2000/svg">
<mask id="mask0_1_904" style="mask-type:alpha" maskUnits="userSpaceOnUse" x="0" y="0" width="24" height="24">
<rect width="24" height="24" fill="#D9D9D9"/>
</mask>
<g mask="url(#mask0_1_904)">
<path d="M16.9996 17.7498C16.8164 17.7498 16.6622 17.6916 16.537 17.5752C16.4122 17.4584 16.3498 17.3084 16.3498 17.1252C16.3498 16.9416 16.4122 16.7916 16.537 16.6752C16.6622 16.5584 16.8164 16.5 16.9996 16.5H19.6L13.3996 10.3248L9.85 13.8498C9.7664 13.9334 9.6788 13.996 9.5872 14.0376C9.4956 14.0792 9.39981 14.1 9.29981 14.1C9.1998 14.1 9.104 14.0792 9.0124 14.0376C8.9208 13.996 8.83321 13.9334 8.74961 13.8498L2.725 7.8252C2.6082 7.7084 2.5498 7.5624 2.5498 7.3872C2.5498 7.2124 2.6164 7.0584 2.7496 6.9252C2.8832 6.8084 3.0332 6.75 3.1996 6.75C3.3664 6.75 3.5164 6.8084 3.6496 6.9252L9.29981 12.6L12.8248 9.0498C12.908 8.9666 12.9954 8.9084 13.087 8.8752C13.179 8.8416 13.275 8.8248 13.375 8.8248C13.475 8.8248 13.5708 8.8416 13.6624 8.8752C13.754 8.9084 13.8414 8.9666 13.9246 9.0498L20.4496 15.6V13.0248C20.4496 12.8584 20.5122 12.7126 20.6374 12.5874C20.7622 12.4626 20.908 12.4002 21.0748 12.4002C21.258 12.4002 21.408 12.4626 21.5248 12.5874C21.6416 12.7126 21.7 12.8584 21.7 13.0248V16.9752C21.7 17.1916 21.625 17.3748 21.475 17.5248C21.325 17.6748 21.1416 17.7498 20.9248 17.7498H16.9996Z" fill="#808799"/>
</g>
</svg>
