<svg width="24" height="24" viewBox="0 0 24 24" fill="none" xmlns="http://www.w3.org/2000/svg">
<mask id="mask0_1_947" style="mask-type:alpha" maskUnits="userSpaceOnUse" x="0" y="0" width="24" height="24">
<rect width="24" height="24" fill="#D9D9D9"/>
</mask>
<g mask="url(#mask0_1_947)">
<path d="M5.075 10.9248C4.6418 10.9248 4.271 10.7708 3.9626 10.4628C3.6542 10.1544 3.5 9.7918 3.5 9.375V5.3748C3.5 4.9416 3.6542 4.5708 3.9626 4.2624C4.271 3.954 4.6418 3.7998 5.075 3.7998H18.9254C19.3586 3.7998 19.7294 3.954 20.0378 4.2624C20.3462 4.5708 20.5004 4.9416 20.5004 5.3748V9.375C20.5004 9.7918 20.3462 10.1544 20.0378 10.4628C19.7294 10.7708 19.3586 10.9248 18.9254 10.9248H5.075ZM5.075 9.675H18.9254C19.0086 9.675 19.0836 9.6416 19.1504 9.5748C19.2168 9.5084 19.25 9.4418 19.25 9.375V5.3748C19.25 5.2916 19.2168 5.2208 19.1504 5.1624C19.0836 5.104 19.0086 5.0748 18.9254 5.0748H5.075C4.9918 5.0748 4.9168 5.104 4.85 5.1624C4.7836 5.2208 4.7504 5.2916 4.7504 5.3748V9.375C4.7504 9.4418 4.7836 9.5084 4.85 9.5748C4.9168 9.6416 4.9918 9.675 5.075 9.675ZM5.075 20.2002C4.6418 20.2002 4.271 20.046 3.9626 19.7376C3.6542 19.4292 3.5 19.0584 3.5 18.6252V14.625C3.5 14.2082 3.6542 13.8456 3.9626 13.5372C4.271 13.2292 4.6418 13.0752 5.075 13.0752H18.9254C19.3586 13.0752 19.7294 13.2292 20.0378 13.5372C20.3462 13.8456 20.5004 14.2082 20.5004 14.625V18.6252C20.5004 19.0584 20.3462 19.4292 20.0378 19.7376C19.7294 20.046 19.3586 20.2002 18.9254 20.2002H5.075ZM5.075 18.9252H18.9254C19.0086 18.9252 19.0836 18.896 19.1504 18.8376C19.2168 18.7792 19.25 18.7084 19.25 18.6252V14.625C19.25 14.5582 19.2168 14.4916 19.1504 14.4252C19.0836 14.3584 19.0086 14.325 18.9254 14.325H5.075C4.9918 14.325 4.9168 14.3584 4.85 14.4252C4.7836 14.4916 4.7504 14.5582 4.7504 14.625V18.6252C4.7504 18.7084 4.7836 18.7792 4.85 18.8376C4.9168 18.896 4.9918 18.9252 5.075 18.9252Z" fill="#808799"/>
</g>
</svg>
