<svg width="24" height="24" viewBox="0 0 24 24" fill="none" xmlns="http://www.w3.org/2000/svg">
<mask id="mask0_1_827" style="mask-type:alpha" maskUnits="userSpaceOnUse" x="0" y="0" width="24" height="24">
<rect width="24" height="24" fill="#D9D9D9"/>
</mask>
<g mask="url(#mask0_1_827)">
<path d="M11.9999 15.45C13.0999 15.45 14.0333 15.0666 14.8001 14.2998C15.5665 13.5334 15.9497 12.6002 15.9497 11.5002C15.9497 10.4002 15.5665 9.4668 14.8001 8.7C14.0333 7.9332 13.0999 7.5498 11.9999 7.5498C10.8999 7.5498 9.96651 7.9332 9.19971 8.7C8.43331 9.4668 8.05011 10.4002 8.05011 11.5002C8.05011 12.6002 8.43331 13.5334 9.19971 14.2998C9.96651 15.0666 10.8999 15.45 11.9999 15.45ZM11.9999 14.25C11.2331 14.25 10.5831 13.9834 10.0499 13.4502C9.51671 12.9166 9.25011 12.2666 9.25011 11.5002C9.25011 10.7334 9.51671 10.0834 10.0499 9.5502C10.5831 9.0166 11.2331 8.7498 11.9999 8.7498C12.7667 8.7498 13.4167 9.0166 13.9499 9.5502C14.4831 10.0834 14.7497 10.7334 14.7497 11.5002C14.7497 12.2666 14.4831 12.9166 13.9499 13.4502C13.4167 13.9834 12.7667 14.25 11.9999 14.25ZM11.9999 18.4998C9.81671 18.4998 7.82091 17.9166 6.01251 16.7502C4.20411 15.5834 2.80831 14.0334 1.82511 12.1002C1.77511 12.0166 1.74171 11.9248 1.72491 11.8248C1.70811 11.7248 1.69971 11.6166 1.69971 11.5002C1.69971 11.3834 1.70811 11.275 1.72491 11.175C1.74171 11.075 1.77511 10.9834 1.82511 10.9002C2.80831 8.9666 4.20411 7.4166 6.01251 6.2502C7.82091 5.0834 9.81671 4.5 11.9999 4.5C14.1831 4.5 16.1789 5.0834 17.9873 6.2502C19.7957 7.4166 21.1915 8.9666 22.1747 10.9002C22.2247 10.9834 22.2581 11.075 22.2749 11.175C22.2917 11.275 22.3001 11.3834 22.3001 11.5002C22.3001 11.6166 22.2917 11.7248 22.2749 11.8248C22.2581 11.9248 22.2247 12.0166 22.1747 12.1002C21.1915 14.0334 19.7957 15.5834 17.9873 16.7502C16.1789 17.9166 14.1831 18.4998 11.9999 18.4998ZM11.9999 17.25C13.9499 17.25 15.7415 16.7292 17.3747 15.6876C19.0083 14.646 20.2501 13.2502 21.1001 11.5002C20.2501 9.7502 19.0083 8.3544 17.3747 7.3128C15.7415 6.2708 13.9499 5.7498 11.9999 5.7498C10.0499 5.7498 8.25831 6.2708 6.62511 7.3128C4.99151 8.3544 3.74151 9.7502 2.87511 11.5002C3.74151 13.2502 4.99151 14.646 6.62511 15.6876C8.25831 16.7292 10.0499 17.25 11.9999 17.25Z" fill="#808799"/>
</g>
</svg>
