<svg width="24" height="24" viewBox="0 0 24 24" fill="none" xmlns="http://www.w3.org/2000/svg">
<mask id="mask0_1_922" style="mask-type:alpha" maskUnits="userSpaceOnUse" x="0" y="0" width="24" height="24">
<rect width="24" height="24" fill="#D9D9D9"/>
</mask>
<g mask="url(#mask0_1_922)">
<path d="M3.225 19.5001C2.925 19.5001 2.7 19.3709 2.55 19.1125C2.4 18.8541 2.4 18.5915 2.55 18.3247L11.325 3.17475C11.475 2.90835 11.7 2.77515 12 2.77515C12.3 2.77515 12.525 2.90835 12.675 3.17475L21.45 18.3247C21.6 18.5915 21.6 18.8541 21.45 19.1125C21.3 19.3709 21.075 19.5001 20.775 19.5001H3.225ZM12.0498 9.04995C11.8666 9.04995 11.7166 9.10835 11.5998 9.22515C11.4834 9.34155 11.4252 9.49155 11.4252 9.67515V13.7251C11.4252 13.8915 11.4834 14.0373 11.5998 14.1625C11.7166 14.2873 11.8666 14.3497 12.0498 14.3497C12.2334 14.3497 12.3834 14.2873 12.4998 14.1625C12.6166 14.0373 12.675 13.8915 12.675 13.7251V9.67515C12.675 9.49155 12.6124 9.34155 12.4872 9.22515C12.3624 9.10835 12.2166 9.04995 12.0498 9.04995ZM12.0498 16.8499C12.2498 16.8499 12.4124 16.7833 12.5376 16.6501C12.6624 16.5165 12.7248 16.3497 12.7248 16.1497C12.7248 15.9665 12.6582 15.8083 12.525 15.6751C12.3918 15.5415 12.2334 15.4747 12.0498 15.4747C11.8498 15.4747 11.6832 15.5415 11.55 15.6751C11.4168 15.8083 11.3502 15.9665 11.3502 16.1497C11.3502 16.3497 11.4168 16.5165 11.55 16.6501C11.6832 16.7833 11.8498 16.8499 12.0498 16.8499ZM4.0248 18.2497H19.9752L12 4.52475L4.0248 18.2497Z" fill="#808799"/>
</g>
</svg>
