<svg width="24" height="24" viewBox="0 0 24 24" fill="none" xmlns="http://www.w3.org/2000/svg">
<mask id="mask0_1_962" style="mask-type:alpha" maskUnits="userSpaceOnUse" x="0" y="0" width="24" height="24">
<rect width="24" height="24" fill="#D9D9D9"/>
</mask>
<g mask="url(#mask0_1_962)">
<path d="M2.25 12.9253C2.25 12.7753 2.3 12.6335 2.4 12.4999C2.5 12.3667 2.6416 12.2667 2.8248 12.1999C3.1916 12.0499 3.5376 11.8583 3.8628 11.6251C4.1876 11.3919 4.6666 11.2753 5.2998 11.2753C6.0998 11.2753 6.6916 11.4711 7.0752 11.8627C7.4584 12.2543 7.975 12.4501 8.625 12.4501C9.3082 12.4501 9.8416 12.2543 10.2252 11.8627C10.6084 11.4711 11.2 11.2753 12 11.2753C12.8 11.2753 13.3916 11.4711 13.7748 11.8627C14.1584 12.2543 14.6834 12.4501 15.3498 12.4501C16.0166 12.4501 16.5416 12.2543 16.9248 11.8627C17.3084 11.4711 17.9002 11.2753 18.7002 11.2753C19.3334 11.2753 19.8124 11.3919 20.1372 11.6251C20.4624 11.8583 20.8084 12.0499 21.1752 12.1999C21.3584 12.2667 21.5 12.3667 21.6 12.4999C21.7 12.6335 21.75 12.7753 21.75 12.9253C21.75 13.1253 21.6834 13.2835 21.5502 13.3999C21.4166 13.5167 21.2666 13.5501 21.1002 13.5001C20.6502 13.3501 20.2626 13.1543 19.9374 12.9127C19.6126 12.6711 19.2002 12.5503 18.7002 12.5503C18.0502 12.5503 17.5292 12.7461 17.1372 13.1377C16.7456 13.5293 16.1498 13.7251 15.3498 13.7251C14.5498 13.7251 13.954 13.5293 13.5624 13.1377C13.1708 12.7461 12.65 12.5503 12 12.5503C11.3332 12.5503 10.8082 12.7461 10.425 13.1377C10.0418 13.5293 9.4502 13.7251 8.6502 13.7251C7.8502 13.7251 7.2544 13.5293 6.8628 13.1377C6.4708 12.7461 5.9498 12.5503 5.2998 12.5503C4.7834 12.5503 4.3668 12.6711 4.05 12.9127C3.7332 13.1543 3.3498 13.3501 2.8998 13.5001C2.7334 13.5501 2.5834 13.5167 2.4498 13.3999C2.3166 13.2835 2.25 13.1253 2.25 12.9253ZM2.25 16.8253C2.25 16.6585 2.3 16.5085 2.4 16.3753C2.5 16.2417 2.6416 16.1417 2.8248 16.0753C3.1916 15.9417 3.5376 15.7583 3.8628 15.5251C4.1876 15.2919 4.6666 15.1753 5.2998 15.1753C6.0998 15.1753 6.6916 15.3711 7.0752 15.7627C7.4584 16.1543 7.975 16.3501 8.625 16.3501C9.3082 16.3501 9.8416 16.1543 10.2252 15.7627C10.6084 15.3711 11.2 15.1753 12 15.1753C12.8 15.1753 13.3916 15.3711 13.7748 15.7627C14.1584 16.1543 14.6834 16.3501 15.3498 16.3501C16.0166 16.3501 16.5416 16.1543 16.9248 15.7627C17.3084 15.3711 17.9002 15.1753 18.7002 15.1753C19.3334 15.1753 19.8124 15.2919 20.1372 15.5251C20.4624 15.7583 20.8084 15.9417 21.1752 16.0753C21.3584 16.1417 21.5 16.2417 21.6 16.3753C21.7 16.5085 21.75 16.6585 21.75 16.8253C21.75 17.0085 21.6834 17.1585 21.5502 17.2753C21.4166 17.3917 21.2666 17.4249 21.1002 17.3749C20.6502 17.2417 20.2626 17.0501 19.9374 16.8001C19.6126 16.5501 19.2002 16.4251 18.7002 16.4251C18.0502 16.4251 17.5292 16.6209 17.1372 17.0125C16.7456 17.4041 16.1498 17.5999 15.3498 17.5999C14.5498 17.5999 13.954 17.4041 13.5624 17.0125C13.1708 16.6209 12.65 16.4251 12 16.4251C11.3332 16.4251 10.8082 16.6209 10.425 17.0125C10.0418 17.4041 9.4418 17.5999 8.625 17.5999C7.825 17.5999 7.2334 17.4041 6.8502 17.0125C6.4666 16.6209 5.9498 16.4251 5.2998 16.4251C4.7834 16.4251 4.3668 16.5501 4.05 16.8001C3.7332 17.0501 3.3498 17.2417 2.8998 17.3749C2.7334 17.4249 2.5834 17.3917 2.4498 17.2753C2.3166 17.1585 2.25 17.0085 2.25 16.8253ZM2.25 9.0253C2.25 8.8753 2.3 8.7335 2.4 8.5999C2.5 8.4667 2.6334 8.3751 2.8002 8.3251C3.1834 8.1919 3.5376 8.0045 3.8628 7.7629C4.1876 7.5209 4.6666 7.3999 5.2998 7.3999C6.0998 7.3999 6.6916 7.5959 7.0752 7.9879C7.4584 8.3795 7.975 8.5753 8.625 8.5753C9.3082 8.5753 9.8416 8.3795 10.2252 7.9879C10.6084 7.5959 11.2 7.3999 12 7.3999C12.8 7.3999 13.3916 7.5959 13.7748 7.9879C14.1584 8.3795 14.6834 8.5753 15.3498 8.5753C16.0166 8.5753 16.5416 8.3795 16.9248 7.9879C17.3084 7.5959 17.9002 7.3999 18.7002 7.3999C19.3334 7.3999 19.8124 7.5167 20.1372 7.7503C20.4624 7.9835 20.8084 8.1667 21.1752 8.2999C21.3584 8.3667 21.5 8.4709 21.6 8.6125C21.7 8.7541 21.75 8.8999 21.75 9.0499C21.75 9.2335 21.6834 9.3835 21.5502 9.4999C21.4166 9.6167 21.2666 9.6501 21.1002 9.6001C20.6502 9.4669 20.2626 9.2753 19.9374 9.0253C19.6126 8.7753 19.2002 8.6503 18.7002 8.6503C18.0502 8.6503 17.5292 8.8461 17.1372 9.2377C16.7456 9.6293 16.1498 9.8251 15.3498 9.8251C14.5498 9.8251 13.954 9.6293 13.5624 9.2377C13.1708 8.8461 12.65 8.6503 12 8.6503C11.3332 8.6503 10.8082 8.8461 10.425 9.2377C10.0418 9.6293 9.4502 9.8251 8.6502 9.8251C7.8502 9.8251 7.2544 9.6293 6.8628 9.2377C6.4708 8.8461 5.9498 8.6503 5.2998 8.6503C4.7998 8.6503 4.3916 8.7711 4.0752 9.0127C3.7584 9.2543 3.375 9.4501 2.925 9.6001C2.7582 9.6501 2.604 9.6167 2.4624 9.4999C2.3208 9.3835 2.25 9.2253 2.25 9.0253Z" fill="#808799"/>
</g>
</svg>
